<svg id="svg" version="1.1" xmlns="http://www.w3.org/2000/svg" xmlns:xlink="http://www.w3.org/1999/xlink" width="400" height="140.99290780141843" viewBox="0, 0, 400,140.99290780141843"><g id="svgg"><path id="path0" d="M60.542 0.110 C 60.427 0.157,60.333 0.338,60.333 0.514 C 60.333 0.690,60.260 0.833,60.170 0.833 C 60.080 0.833,59.959 1.021,59.902 1.250 C 59.844 1.479,59.736 1.667,59.662 1.667 C 59.587 1.667,59.478 1.886,59.419 2.155 C 59.360 2.424,59.216 2.724,59.098 2.821 C 58.980 2.919,58.745 3.336,58.575 3.749 C 58.404 4.162,58.214 4.500,58.151 4.500 C 58.088 4.500,57.988 4.762,57.928 5.083 C 57.867 5.404,57.753 5.667,57.672 5.667 C 57.592 5.667,57.477 5.892,57.417 6.167 C 57.356 6.442,57.238 6.667,57.153 6.667 C 57.069 6.667,57.000 6.779,57.000 6.915 C 57.000 7.052,56.860 7.251,56.689 7.358 C 56.502 7.475,56.410 7.675,56.459 7.859 C 56.512 8.063,56.449 8.167,56.275 8.167 C 56.108 8.167,56.046 8.259,56.106 8.417 C 56.159 8.554,56.119 8.667,56.018 8.667 C 55.916 8.667,55.833 8.817,55.833 9.000 C 55.833 9.183,55.758 9.333,55.667 9.333 C 55.575 9.333,55.500 9.446,55.500 9.583 C 55.500 9.721,55.427 9.833,55.339 9.833 C 55.250 9.833,55.220 9.946,55.273 10.083 C 55.326 10.221,55.286 10.333,55.184 10.333 C 55.083 10.333,55.000 10.483,55.000 10.667 C 55.000 10.850,54.934 11.000,54.853 11.000 C 54.772 11.000,54.651 11.169,54.584 11.375 C 54.516 11.581,54.445 11.787,54.425 11.833 C 54.165 12.429,53.935 12.861,53.584 13.417 C 53.351 13.783,53.116 14.215,53.061 14.375 C 53.006 14.535,52.895 14.667,52.814 14.667 C 52.733 14.667,52.667 14.769,52.667 14.893 C 52.667 15.018,52.442 15.541,52.167 16.057 C 51.892 16.572,51.667 17.108,51.667 17.247 C 51.667 17.386,51.592 17.500,51.500 17.500 C 51.408 17.500,51.333 17.572,51.333 17.659 C 51.333 17.747,51.117 18.186,50.853 18.634 C 50.588 19.082,50.317 19.623,50.249 19.836 C 50.181 20.049,49.877 20.614,49.572 21.090 C 49.267 21.567,48.968 22.154,48.907 22.395 C 48.847 22.636,48.735 22.833,48.659 22.833 C 48.584 22.833,48.427 23.096,48.311 23.417 C 48.195 23.738,48.040 24.000,47.967 24.000 C 47.893 24.000,47.833 24.150,47.833 24.333 C 47.833 24.517,47.762 24.667,47.674 24.667 C 47.587 24.667,47.466 24.929,47.406 25.250 C 47.345 25.571,47.244 25.833,47.179 25.833 C 47.115 25.833,46.961 26.092,46.836 26.409 C 46.712 26.726,46.536 26.939,46.446 26.883 C 46.352 26.825,46.335 26.867,46.405 26.982 C 46.473 27.091,46.431 27.298,46.313 27.442 C 46.194 27.585,46.018 27.845,45.923 28.020 C 45.661 28.501,44.495 30.839,44.188 31.500 C 44.039 31.821,43.860 32.108,43.792 32.139 C 43.723 32.169,43.667 32.338,43.667 32.514 C 43.667 32.690,43.603 32.833,43.524 32.833 C 43.446 32.833,43.308 33.077,43.219 33.375 C 43.129 33.673,42.963 33.896,42.849 33.871 C 42.735 33.846,42.689 33.902,42.747 33.996 C 42.806 34.090,42.774 34.167,42.677 34.167 C 42.579 34.167,42.500 34.273,42.500 34.403 C 42.500 34.631,42.013 35.662,41.825 35.833 C 41.739 35.911,41.122 37.147,41.075 37.333 C 41.020 37.554,40.764 38.093,40.678 38.167 C 40.625 38.212,40.358 38.700,40.085 39.250 C 39.812 39.800,39.451 40.456,39.283 40.708 C 39.115 40.960,39.039 41.168,39.114 41.169 C 39.189 41.171,39.171 41.227,39.075 41.294 C 38.878 41.431,38.333 42.541,38.333 42.803 C 38.333 42.896,38.273 42.997,38.198 43.028 C 38.124 43.058,37.871 43.474,37.635 43.951 C 37.400 44.428,37.169 44.780,37.123 44.735 C 37.078 44.689,36.990 44.917,36.929 45.242 C 36.868 45.567,36.747 45.833,36.659 45.833 C 36.572 45.833,36.500 45.983,36.500 46.167 C 36.500 46.350,36.441 46.500,36.370 46.500 C 36.298 46.500,36.156 46.723,36.053 46.994 C 35.916 47.357,35.916 47.479,36.052 47.453 C 36.154 47.433,36.315 47.585,36.408 47.792 C 36.502 47.998,36.633 48.167,36.699 48.167 C 36.764 48.167,36.867 48.429,36.928 48.750 C 36.988 49.071,37.104 49.333,37.185 49.333 C 37.267 49.333,37.333 49.483,37.333 49.667 C 37.333 49.850,37.408 50.000,37.500 50.000 C 37.592 50.000,37.667 50.112,37.667 50.250 C 37.667 50.387,37.750 50.500,37.851 50.500 C 37.953 50.500,37.995 50.606,37.945 50.736 C 37.895 50.866,37.955 51.011,38.078 51.058 C 38.201 51.106,38.352 51.374,38.414 51.655 C 38.476 51.937,38.596 52.167,38.680 52.167 C 38.764 52.167,38.833 52.317,38.833 52.500 C 38.833 52.683,38.921 52.833,39.028 52.833 C 39.135 52.833,39.177 52.879,39.121 52.934 C 39.066 52.990,39.166 53.192,39.343 53.383 C 39.521 53.573,39.667 53.828,39.667 53.948 C 39.667 54.068,39.742 54.167,39.833 54.167 C 39.925 54.167,39.984 54.223,39.965 54.292 C 39.918 54.461,40.527 55.724,40.721 55.856 C 40.806 55.915,40.824 56.047,40.761 56.149 C 40.697 56.252,40.763 56.381,40.906 56.436 C 41.049 56.491,41.167 56.621,41.168 56.726 C 41.169 56.831,41.355 57.254,41.581 57.667 C 41.807 58.079,42.040 58.548,42.099 58.708 C 42.158 58.869,42.272 59.000,42.353 59.000 C 42.434 59.000,42.500 59.150,42.500 59.333 C 42.500 59.517,42.575 59.667,42.667 59.667 C 42.758 59.667,42.833 59.779,42.833 59.917 C 42.833 60.054,42.908 60.167,43.000 60.167 C 43.092 60.167,43.167 60.286,43.167 60.433 C 43.167 60.732,43.664 61.688,43.912 61.866 C 44.001 61.930,44.022 62.034,43.958 62.097 C 43.895 62.161,43.991 62.420,44.172 62.674 C 44.352 62.927,44.500 63.205,44.500 63.291 C 44.500 63.378,44.685 63.664,44.911 63.927 C 45.138 64.190,45.372 64.632,45.433 64.909 C 45.494 65.185,45.665 65.501,45.813 65.609 C 45.962 65.717,46.031 65.858,45.968 65.921 C 45.905 65.984,45.992 66.184,46.161 66.365 C 46.330 66.547,46.516 66.952,46.575 67.264 C 46.634 67.577,46.753 67.833,46.841 67.833 C 46.928 67.833,47.000 67.940,47.000 68.069 C 47.000 68.199,47.056 68.331,47.125 68.361 C 47.194 68.392,47.393 68.679,47.568 69.000 C 47.742 69.321,48.028 69.846,48.203 70.167 C 48.377 70.487,48.627 70.938,48.758 71.167 C 48.888 71.396,48.996 71.715,48.998 71.875 C 48.999 72.035,49.083 72.167,49.184 72.167 C 49.286 72.167,49.324 72.283,49.270 72.425 C 49.215 72.568,49.229 72.648,49.300 72.604 C 49.371 72.560,49.533 72.762,49.660 73.054 C 49.787 73.345,50.017 73.696,50.171 73.833 C 50.325 73.971,50.431 74.215,50.407 74.376 C 50.382 74.537,50.415 74.636,50.479 74.596 C 50.543 74.556,50.699 74.762,50.824 75.054 C 50.950 75.345,51.195 75.789,51.370 76.041 C 51.545 76.292,51.641 76.573,51.584 76.666 C 51.527 76.758,51.542 76.833,51.618 76.833 C 51.759 76.833,52.333 78.039,52.333 78.334 C 52.333 78.426,52.408 78.500,52.500 78.500 C 52.592 78.500,52.667 78.579,52.667 78.675 C 52.667 78.771,52.929 79.260,53.250 79.761 C 53.571 80.263,53.833 80.784,53.833 80.920 C 53.833 81.056,53.900 81.167,53.981 81.167 C 54.124 81.167,54.388 81.790,54.351 82.042 C 54.341 82.110,54.408 82.167,54.500 82.167 C 54.592 82.167,54.667 82.317,54.667 82.500 C 54.667 82.683,54.723 82.834,54.792 82.835 C 54.987 82.837,55.336 83.693,55.220 83.882 C 55.160 83.979,55.198 84.000,55.308 83.933 C 55.417 83.865,55.500 83.912,55.500 84.042 C 55.500 84.168,55.632 84.416,55.793 84.594 C 56.165 85.003,57.000 86.621,57.000 86.932 C 57.000 87.061,57.075 87.167,57.167 87.167 C 57.258 87.167,57.333 87.244,57.333 87.338 C 57.333 87.432,57.589 88.027,57.901 88.659 C 58.214 89.291,58.420 89.863,58.360 89.931 C 58.299 89.998,58.325 90.012,58.417 89.961 C 58.603 89.857,58.888 90.137,58.972 90.505 C 59.002 90.638,59.105 90.795,59.201 90.855 C 59.297 90.914,59.325 91.046,59.262 91.148 C 59.199 91.250,59.226 91.333,59.323 91.333 C 59.421 91.333,59.500 91.446,59.500 91.583 C 59.500 91.721,59.572 91.833,59.659 91.833 C 59.747 91.833,59.867 92.096,59.928 92.417 C 59.988 92.738,60.104 93.000,60.185 93.000 C 60.267 93.000,60.333 93.112,60.333 93.250 C 60.333 93.388,60.408 93.500,60.500 93.500 C 60.592 93.500,60.667 93.594,60.667 93.708 C 60.667 93.874,64.055 93.908,77.167 93.873 C 93.514 93.831,93.667 93.827,93.667 93.498 C 93.667 93.316,93.592 93.167,93.500 93.167 C 93.408 93.167,93.333 93.060,93.333 92.930 C 93.333 92.650,91.973 89.942,91.792 89.861 C 91.723 89.831,91.667 89.699,91.667 89.570 C 91.667 89.245,90.197 86.399,89.904 86.156 C 89.773 86.048,89.667 85.856,89.667 85.730 C 89.667 85.603,89.584 85.500,89.482 85.500 C 89.381 85.500,89.341 85.387,89.394 85.250 C 89.446 85.112,89.431 85.000,89.359 85.000 C 89.288 85.000,89.126 84.738,89.000 84.417 C 88.874 84.096,88.698 83.833,88.608 83.833 C 88.518 83.833,88.489 83.789,88.544 83.734 C 88.598 83.679,88.497 83.375,88.318 83.057 C 88.140 82.739,88.037 82.408,88.090 82.323 C 88.143 82.237,88.107 82.167,88.010 82.167 C 87.913 82.167,87.833 82.004,87.833 81.806 C 87.833 81.607,87.783 81.495,87.721 81.557 C 87.659 81.618,87.393 81.218,87.128 80.668 C 86.864 80.117,86.577 79.667,86.491 79.667 C 86.404 79.667,86.333 79.517,86.333 79.333 C 86.333 79.150,86.264 79.000,86.180 79.000 C 86.096 79.000,85.974 78.756,85.909 78.458 C 85.844 78.160,85.743 77.879,85.683 77.833 C 85.494 77.688,84.667 75.979,84.667 75.735 C 84.667 75.606,84.600 75.500,84.519 75.500 C 84.373 75.500,83.740 74.310,83.820 74.185 C 83.843 74.150,83.795 74.075,83.714 74.019 C 83.633 73.963,83.420 73.628,83.241 73.276 C 82.633 72.074,82.588 72.000,82.460 72.000 C 82.391 72.000,82.333 71.850,82.333 71.667 C 82.333 71.483,82.250 71.333,82.149 71.333 C 82.047 71.333,82.008 71.221,82.060 71.083 C 82.113 70.946,82.084 70.833,81.995 70.833 C 81.906 70.833,81.833 70.683,81.833 70.500 C 81.833 70.317,81.758 70.167,81.667 70.167 C 81.575 70.167,81.500 70.054,81.500 69.917 C 81.500 69.779,81.425 69.667,81.333 69.667 C 81.242 69.667,81.167 69.517,81.167 69.333 C 81.167 69.150,81.084 69.000,80.982 69.000 C 80.881 69.000,80.841 68.888,80.894 68.750 C 80.946 68.612,80.917 68.500,80.828 68.500 C 80.739 68.500,80.667 68.387,80.667 68.250 C 80.667 68.112,80.609 68.000,80.539 68.000 C 80.415 68.000,79.833 66.793,79.833 66.536 C 79.833 66.465,79.683 66.299,79.500 66.167 C 79.317 66.035,79.166 65.849,79.166 65.755 C 79.166 65.528,76.209 59.632,76.035 59.511 C 75.861 59.390,75.333 58.260,75.333 58.010 C 75.333 57.905,75.183 57.658,75.000 57.462 C 74.817 57.265,74.667 57.005,74.667 56.885 C 74.667 56.765,74.587 56.667,74.490 56.667 C 74.393 56.667,74.360 56.591,74.417 56.499 C 74.474 56.407,74.366 56.114,74.177 55.848 C 73.988 55.583,73.833 55.246,73.833 55.099 C 73.833 54.953,73.758 54.833,73.667 54.833 C 73.575 54.833,73.500 54.721,73.500 54.583 C 73.500 54.446,73.417 54.333,73.316 54.333 C 73.214 54.333,73.174 54.221,73.227 54.083 C 73.280 53.946,73.269 53.833,73.202 53.833 C 73.136 53.833,72.975 53.590,72.846 53.292 C 72.716 52.994,72.562 52.712,72.504 52.667 C 72.326 52.526,71.667 51.170,71.667 50.943 C 71.667 50.826,71.517 50.569,71.333 50.372 C 71.150 50.175,71.000 49.905,71.000 49.771 C 71.000 49.637,70.944 49.503,70.875 49.472 C 70.678 49.385,70.167 48.393,70.167 48.099 C 70.167 47.953,70.096 47.833,70.010 47.833 C 69.778 47.833,69.577 46.280,69.800 46.206 C 69.900 46.172,69.940 46.037,69.889 45.906 C 69.839 45.774,69.872 45.667,69.963 45.667 C 70.105 45.667,70.323 45.219,70.394 44.778 C 70.407 44.702,70.548 44.544,70.708 44.427 C 70.869 44.309,71.000 44.090,71.000 43.940 C 71.000 43.790,71.057 43.667,71.127 43.667 C 71.197 43.667,71.390 43.348,71.555 42.958 C 71.720 42.569,71.944 42.044,72.052 41.792 C 72.160 41.540,72.299 41.333,72.361 41.333 C 72.423 41.333,72.523 41.108,72.583 40.833 C 72.644 40.558,72.754 40.333,72.828 40.333 C 72.902 40.333,73.012 40.071,73.072 39.750 C 73.133 39.429,73.239 39.167,73.310 39.167 C 73.380 39.167,73.539 38.908,73.664 38.591 C 73.788 38.274,73.952 38.054,74.028 38.101 C 74.104 38.148,74.167 38.037,74.167 37.855 C 74.167 37.673,74.263 37.425,74.382 37.304 C 74.646 37.033,76.000 34.310,76.000 34.049 C 76.000 33.946,76.059 33.836,76.131 33.806 C 76.298 33.735,77.254 31.792,77.204 31.625 C 77.183 31.556,77.242 31.500,77.333 31.500 C 77.425 31.500,77.500 31.397,77.500 31.270 C 77.500 31.144,77.609 30.951,77.742 30.840 C 77.875 30.730,78.149 30.290,78.353 29.862 C 78.556 29.434,78.857 28.887,79.023 28.648 C 79.188 28.408,79.272 28.161,79.208 28.097 C 79.145 28.034,79.170 27.930,79.264 27.866 C 79.424 27.757,79.636 27.336,80.185 26.042 C 80.311 25.744,80.465 25.500,80.527 25.500 C 80.589 25.500,80.690 25.275,80.750 25.000 C 80.810 24.725,80.916 24.500,80.986 24.500 C 81.055 24.500,81.330 24.069,81.597 23.542 C 81.865 23.015,82.140 22.558,82.208 22.528 C 82.277 22.497,82.333 22.359,82.333 22.220 C 82.333 22.082,82.478 21.764,82.656 21.516 C 82.833 21.267,83.028 20.861,83.090 20.615 C 83.152 20.368,83.264 20.167,83.338 20.167 C 83.413 20.167,83.523 19.942,83.583 19.667 C 83.644 19.392,83.762 19.167,83.847 19.167 C 83.931 19.167,84.000 19.062,84.000 18.934 C 84.000 18.567,84.763 17.319,84.902 17.458 C 84.971 17.527,85.013 17.508,84.996 17.417 C 84.944 17.143,85.194 16.500,85.353 16.500 C 85.434 16.500,85.500 16.364,85.500 16.198 C 85.500 16.032,85.637 15.749,85.804 15.569 C 85.972 15.390,86.078 15.151,86.040 15.038 C 86.003 14.925,86.053 14.833,86.153 14.833 C 86.252 14.833,86.333 14.683,86.333 14.500 C 86.333 14.317,86.413 14.167,86.510 14.167 C 86.607 14.167,86.635 14.083,86.572 13.981 C 86.509 13.879,86.523 13.748,86.604 13.690 C 86.881 13.488,87.998 11.370,87.999 11.043 C 88.000 10.929,88.150 10.742,88.333 10.628 C 88.517 10.513,88.667 10.359,88.667 10.284 C 88.667 10.124,89.262 8.729,89.535 8.250 C 89.639 8.067,89.881 7.617,90.071 7.250 C 90.261 6.883,90.483 6.535,90.563 6.477 C 90.644 6.418,90.658 6.287,90.595 6.185 C 90.532 6.083,90.546 6.000,90.626 6.000 C 90.706 6.000,90.874 5.738,91.000 5.417 C 91.126 5.096,91.284 4.833,91.351 4.833 C 91.418 4.833,91.521 4.616,91.580 4.351 C 91.638 4.085,91.827 3.740,92.000 3.583 C 92.173 3.427,92.362 3.082,92.420 2.816 C 92.479 2.551,92.577 2.333,92.639 2.333 C 92.751 2.333,92.986 1.859,93.325 0.948 C 93.421 0.691,93.568 0.522,93.651 0.574 C 93.734 0.625,93.763 0.517,93.715 0.334 C 93.631 0.014,61.320 -0.204,60.542 0.110 M45.328 32.125 C 45.331 32.240,45.413 32.333,45.510 32.333 C 45.607 32.333,45.644 32.402,45.592 32.487 C 45.540 32.571,45.611 32.754,45.751 32.894 C 45.890 33.033,46.050 33.375,46.106 33.654 C 46.162 33.933,46.265 34.126,46.335 34.082 C 46.406 34.039,46.513 34.265,46.573 34.585 C 46.633 34.905,46.753 35.167,46.841 35.167 C 46.928 35.167,47.000 35.310,47.000 35.486 C 47.000 35.662,47.056 35.831,47.125 35.861 C 47.194 35.892,47.475 36.384,47.750 36.956 C 48.025 37.527,48.302 37.996,48.365 37.997 C 48.429 37.999,48.452 38.150,48.417 38.333 C 48.376 38.542,48.442 38.667,48.593 38.667 C 48.725 38.667,48.834 38.760,48.834 38.875 C 48.834 38.990,49.059 39.533,49.333 40.083 C 49.608 40.633,49.832 41.171,49.833 41.278 C 49.833 41.385,49.890 41.497,49.958 41.528 C 50.027 41.558,50.304 42.033,50.573 42.583 C 50.842 43.133,51.202 43.788,51.373 44.037 C 51.544 44.287,51.671 44.587,51.657 44.704 C 51.617 45.026,51.853 45.667,52.012 45.667 C 52.089 45.667,52.201 45.929,52.261 46.250 C 52.321 46.571,52.437 46.833,52.519 46.833 C 52.600 46.833,52.667 46.946,52.667 47.083 C 52.667 47.221,52.738 47.333,52.826 47.333 C 52.913 47.333,53.034 47.596,53.094 47.917 C 53.155 48.237,53.262 48.500,53.332 48.500 C 53.465 48.500,54.392 50.288,54.302 50.370 C 54.274 50.396,54.420 50.653,54.626 50.942 C 54.832 51.232,55.000 51.588,55.000 51.734 C 55.000 51.880,55.069 52.000,55.153 52.000 C 55.238 52.000,55.356 52.225,55.417 52.500 C 55.477 52.775,55.596 53.000,55.680 53.000 C 55.764 53.000,55.833 53.150,55.833 53.333 C 55.833 53.517,55.900 53.667,55.981 53.667 C 56.106 53.667,56.356 54.267,56.278 54.379 C 56.263 54.400,56.424 54.660,56.636 54.957 C 56.848 55.254,56.977 55.569,56.924 55.655 C 56.870 55.742,56.959 55.887,57.120 55.977 C 57.282 56.068,57.363 56.193,57.300 56.255 C 57.238 56.318,57.326 56.518,57.496 56.701 C 57.666 56.884,57.854 57.227,57.914 57.465 C 57.973 57.702,58.172 58.106,58.355 58.363 C 58.537 58.620,58.730 59.092,58.781 59.412 C 58.833 59.732,58.941 59.953,59.020 59.905 C 59.165 59.815,60.051 61.574,60.054 61.958 C 60.055 62.073,60.118 62.167,60.194 62.167 C 60.271 62.167,60.333 62.321,60.333 62.510 C 60.333 62.699,60.408 62.807,60.500 62.750 C 60.592 62.693,60.667 62.726,60.667 62.822 C 60.667 63.097,61.232 64.333,61.358 64.333 C 61.420 64.333,61.521 64.631,61.583 64.995 C 61.645 65.363,61.781 65.641,61.889 65.620 C 61.996 65.600,62.073 65.714,62.060 65.873 C 62.048 66.033,62.104 66.122,62.185 66.072 C 62.267 66.021,62.333 66.135,62.333 66.323 C 62.333 66.512,62.394 66.667,62.468 66.667 C 62.543 66.667,62.738 67.117,62.903 67.667 C 63.068 68.217,63.270 68.667,63.351 68.667 C 63.433 68.667,63.500 68.779,63.500 68.917 C 63.500 69.054,63.568 69.167,63.651 69.167 C 63.734 69.167,63.760 69.328,63.708 69.526 C 63.655 69.728,63.682 69.843,63.770 69.789 C 63.855 69.736,64.111 70.099,64.338 70.596 C 64.564 71.093,64.814 71.499,64.893 71.499 C 64.971 71.500,64.992 71.613,64.940 71.750 C 64.887 71.887,64.902 72.000,64.974 72.000 C 65.046 72.000,65.207 72.262,65.333 72.583 C 65.459 72.904,65.621 73.167,65.693 73.167 C 65.764 73.167,65.780 73.279,65.727 73.417 C 65.674 73.554,65.714 73.667,65.816 73.667 C 65.917 73.667,66.000 73.817,66.000 74.000 C 66.000 74.183,66.075 74.333,66.167 74.333 C 66.258 74.333,66.333 74.446,66.333 74.583 C 66.333 74.721,66.408 74.833,66.500 74.833 C 66.592 74.833,66.654 74.890,66.639 74.958 C 66.591 75.179,66.865 76.000,66.987 76.000 C 67.052 76.000,67.207 76.262,67.333 76.583 C 67.459 76.904,67.620 77.167,67.690 77.167 C 67.761 77.167,67.867 77.429,67.928 77.750 C 67.988 78.071,68.104 78.333,68.185 78.333 C 68.267 78.333,68.333 78.446,68.333 78.583 C 68.333 78.721,68.405 78.833,68.492 78.833 C 68.580 78.833,68.701 79.096,68.761 79.417 C 68.821 79.737,68.923 80.000,68.987 80.000 C 69.052 80.000,69.207 80.262,69.333 80.583 C 69.459 80.904,69.629 81.167,69.712 81.167 C 69.794 81.167,69.830 81.260,69.792 81.374 C 69.683 81.700,70.096 82.000,70.655 82.000 C 70.936 82.000,71.167 82.080,71.167 82.178 C 71.167 82.276,71.331 82.333,71.531 82.303 C 72.938 82.098,74.170 86.326,72.828 86.752 C 72.647 86.809,72.500 86.965,72.500 87.099 C 72.500 87.373,71.848 87.667,71.239 87.667 C 71.007 87.667,70.851 87.754,70.875 87.871 C 70.898 87.983,70.748 88.101,70.542 88.133 C 70.288 88.171,70.167 88.105,70.167 87.928 C 70.167 87.774,70.024 87.667,69.817 87.667 C 68.748 87.667,67.500 86.221,67.500 84.983 C 67.500 84.541,68.128 83.138,68.375 83.028 C 68.671 82.896,68.401 81.705,67.991 81.333 C 67.902 81.252,67.616 80.646,67.148 79.542 C 67.022 79.244,66.870 79.000,66.811 79.000 C 66.752 79.000,66.656 78.743,66.597 78.429 C 66.538 78.115,66.436 77.833,66.370 77.804 C 66.181 77.719,65.667 76.726,65.667 76.447 C 65.667 76.308,65.610 76.169,65.542 76.139 C 65.380 76.067,64.500 74.305,64.500 74.053 C 64.500 73.948,64.444 73.836,64.375 73.806 C 64.306 73.775,64.028 73.300,63.756 72.750 C 63.485 72.200,63.222 71.712,63.173 71.667 C 62.934 71.444,62.667 70.802,62.754 70.660 C 62.809 70.572,62.774 70.500,62.677 70.500 C 62.579 70.500,62.500 70.346,62.500 70.157 C 62.500 69.968,62.433 69.855,62.352 69.905 C 62.270 69.956,62.154 69.735,62.094 69.415 C 62.034 69.095,61.932 68.833,61.866 68.833 C 61.801 68.833,61.645 68.590,61.520 68.292 C 61.092 67.275,60.537 66.204,60.333 66.000 C 60.129 65.795,59.833 65.147,59.833 64.903 C 59.833 64.755,59.734 64.436,59.612 64.192 C 59.491 63.949,59.266 63.500,59.112 63.195 C 58.959 62.889,58.833 62.529,58.833 62.393 C 58.833 62.258,58.766 62.188,58.684 62.239 C 58.603 62.290,58.485 62.130,58.423 61.884 C 58.362 61.638,58.166 61.233,57.989 60.984 C 57.812 60.736,57.667 60.418,57.667 60.280 C 57.667 60.141,57.610 60.003,57.542 59.972 C 57.345 59.885,56.833 58.893,56.833 58.599 C 56.833 58.453,56.758 58.333,56.667 58.333 C 56.575 58.333,56.500 58.202,56.499 58.042 C 56.498 57.881,56.346 57.525,56.160 57.250 C 55.975 56.975,55.707 56.487,55.564 56.167 C 55.422 55.846,55.240 55.471,55.161 55.333 C 54.706 54.548,53.167 51.349,53.167 51.189 C 53.167 51.085,53.092 51.000,53.000 51.000 C 52.908 51.000,52.833 50.850,52.833 50.667 C 52.833 50.483,52.764 50.333,52.680 50.333 C 52.596 50.333,52.477 50.108,52.417 49.833 C 52.356 49.558,52.238 49.333,52.153 49.333 C 52.069 49.333,52.000 49.183,52.000 49.000 C 52.000 48.817,51.925 48.667,51.833 48.667 C 51.742 48.667,51.667 48.577,51.667 48.468 C 51.667 48.359,51.431 47.778,51.144 47.177 C 50.856 46.575,50.389 45.596,50.106 45.000 C 49.822 44.404,49.523 43.869,49.440 43.810 C 49.358 43.752,49.342 43.621,49.405 43.519 C 49.468 43.417,49.440 43.333,49.343 43.333 C 49.246 43.333,49.167 43.183,49.167 43.000 C 49.167 42.817,49.092 42.667,49.000 42.667 C 48.908 42.667,48.833 42.554,48.833 42.417 C 48.833 42.279,48.761 42.167,48.672 42.167 C 48.583 42.167,48.554 42.054,48.606 41.917 C 48.659 41.779,48.619 41.667,48.518 41.667 C 48.416 41.667,48.333 41.517,48.333 41.333 C 48.333 41.150,48.258 41.000,48.167 41.000 C 48.075 41.000,48.000 40.880,48.000 40.734 C 48.000 40.440,47.489 39.449,47.292 39.361 C 47.223 39.331,47.167 39.230,47.167 39.137 C 47.167 39.044,47.012 38.751,46.823 38.485 C 46.634 38.220,46.522 37.933,46.574 37.849 C 46.626 37.764,46.612 37.670,46.543 37.639 C 46.473 37.608,46.119 36.983,45.755 36.250 C 45.391 35.517,45.028 34.871,44.949 34.815 C 44.870 34.759,44.810 34.646,44.817 34.565 C 44.835 34.352,44.640 33.765,44.519 33.667 C 44.007 33.250,44.003 32.444,44.512 32.000 C 44.565 31.954,44.660 31.774,44.725 31.599 C 44.855 31.248,45.316 31.650,45.328 32.125 M116.283 43.684 C 113.392 43.751,111.920 43.847,111.791 43.975 C 111.686 44.081,111.315 44.167,110.967 44.167 C 110.618 44.167,110.333 44.229,110.333 44.304 C 110.333 44.380,110.117 44.411,109.853 44.372 C 109.589 44.333,109.322 44.384,109.260 44.484 C 109.198 44.584,109.000 44.667,108.821 44.667 C 108.642 44.667,108.365 44.732,108.206 44.812 C 108.047 44.892,107.317 45.247,106.583 45.602 C 105.850 45.957,105.202 46.313,105.144 46.395 C 105.085 46.476,104.954 46.491,104.852 46.428 C 104.750 46.365,104.667 46.376,104.667 46.453 C 104.667 46.529,104.330 46.740,103.918 46.921 C 103.507 47.102,103.169 47.330,103.168 47.427 C 103.166 47.649,102.180 48.389,101.886 48.389 C 101.765 48.389,101.667 48.451,101.667 48.526 C 101.667 48.602,101.442 48.879,101.167 49.142 C 100.892 49.404,100.667 49.737,100.667 49.882 C 100.667 50.026,100.516 50.192,100.331 50.251 C 100.146 50.309,100.038 50.427,100.091 50.512 C 100.143 50.597,100.107 50.667,100.010 50.667 C 99.913 50.667,99.833 50.763,99.833 50.880 C 99.833 50.997,99.690 51.196,99.515 51.322 C 99.340 51.449,99.235 51.652,99.282 51.774 C 99.329 51.897,99.252 52.042,99.111 52.096 C 98.969 52.150,98.806 52.413,98.747 52.681 C 98.688 52.948,98.571 53.167,98.487 53.167 C 98.402 53.167,98.333 53.387,98.333 53.657 C 98.333 53.926,98.258 54.193,98.167 54.250 C 98.075 54.307,98.000 54.536,98.000 54.760 C 98.000 54.984,97.944 55.166,97.875 55.166 C 97.806 55.166,97.774 55.766,97.804 56.500 C 97.840 57.374,97.797 57.833,97.679 57.833 C 97.581 57.833,97.500 57.983,97.500 58.167 C 97.500 58.350,97.564 58.500,97.642 58.500 C 97.720 58.500,97.828 59.342,97.882 60.372 C 97.939 61.452,98.055 62.268,98.157 62.302 C 98.254 62.335,98.333 62.542,98.333 62.764 C 98.333 62.985,98.408 63.167,98.500 63.167 C 98.592 63.167,98.667 63.307,98.667 63.478 C 98.667 63.648,98.812 63.973,98.990 64.199 C 99.167 64.425,99.363 64.810,99.424 65.055 C 99.486 65.300,99.598 65.500,99.674 65.500 C 99.749 65.500,99.862 65.661,99.925 65.859 C 100.045 66.237,102.113 68.333,102.366 68.333 C 102.448 68.333,102.717 68.521,102.964 68.750 C 103.211 68.979,103.500 69.167,103.605 69.167 C 103.711 69.167,103.839 69.276,103.891 69.409 C 103.942 69.542,104.306 69.799,104.700 69.979 C 105.094 70.160,105.573 70.455,105.764 70.635 C 105.955 70.814,106.349 71.013,106.639 71.077 C 106.929 71.141,107.167 71.262,107.167 71.347 C 107.167 71.431,107.317 71.500,107.500 71.500 C 107.683 71.500,107.833 71.579,107.833 71.677 C 107.833 71.774,107.910 71.806,108.004 71.748 C 108.196 71.629,109.167 72.013,109.167 72.207 C 109.167 72.277,109.317 72.333,109.500 72.333 C 109.683 72.333,109.833 72.408,109.833 72.500 C 109.833 72.592,110.016 72.667,110.240 72.667 C 110.464 72.667,110.688 72.733,110.738 72.814 C 110.789 72.896,111.093 73.012,111.415 73.072 C 111.737 73.132,112.000 73.245,112.000 73.322 C 112.000 73.399,112.349 73.514,112.774 73.578 C 113.200 73.642,113.688 73.763,113.858 73.847 C 114.028 73.931,114.316 74.075,114.498 74.167 C 114.680 74.258,115.013 74.333,115.238 74.333 C 115.463 74.333,115.687 74.398,115.736 74.478 C 115.786 74.558,116.131 74.672,116.504 74.731 C 116.876 74.791,117.309 74.909,117.466 74.993 C 117.926 75.242,119.406 75.750,119.542 75.707 C 119.610 75.685,119.667 75.742,119.667 75.833 C 119.667 75.925,119.854 76.000,120.083 76.000 C 120.313 76.000,120.500 76.075,120.500 76.167 C 120.500 76.258,120.645 76.333,120.821 76.333 C 120.998 76.333,121.255 76.446,121.393 76.583 C 121.530 76.721,121.761 76.833,121.905 76.833 C 122.049 76.833,122.167 76.908,122.167 77.000 C 122.167 77.092,122.314 77.167,122.494 77.167 C 122.674 77.167,122.903 77.319,123.002 77.505 C 123.102 77.691,123.258 77.796,123.350 77.740 C 123.519 77.635,123.975 78.073,124.583 78.923 C 124.767 79.179,125.015 79.488,125.135 79.609 C 125.255 79.731,125.397 80.112,125.449 80.457 C 125.502 80.801,125.651 81.206,125.780 81.355 C 126.061 81.679,126.028 84.103,125.744 84.053 C 125.649 84.037,125.554 84.225,125.534 84.470 C 125.514 84.716,125.427 84.940,125.341 84.969 C 125.256 84.998,125.227 85.129,125.277 85.261 C 125.328 85.392,125.295 85.500,125.203 85.500 C 125.112 85.500,124.911 85.767,124.756 86.093 C 124.602 86.420,124.312 86.752,124.112 86.833 C 123.913 86.913,123.825 86.985,123.917 86.992 C 124.088 87.005,123.539 87.355,122.875 87.655 C 122.669 87.749,122.500 87.911,122.500 88.015 C 122.500 88.128,122.331 88.173,122.083 88.126 C 121.854 88.082,121.667 88.111,121.667 88.190 C 121.667 88.269,121.494 88.333,121.283 88.333 C 121.073 88.333,120.806 88.427,120.692 88.542 C 120.539 88.694,119.597 88.750,117.166 88.750 C 114.735 88.750,113.794 88.694,113.642 88.542 C 113.527 88.427,113.228 88.333,112.977 88.333 C 112.725 88.333,112.475 88.262,112.421 88.174 C 112.367 88.086,112.210 88.058,112.072 88.111 C 111.934 88.164,111.692 88.094,111.535 87.957 C 111.378 87.819,111.063 87.649,110.833 87.580 C 110.604 87.510,110.257 87.295,110.062 87.102 C 109.868 86.908,109.436 86.536,109.104 86.274 C 108.772 86.013,108.500 85.728,108.500 85.642 C 108.500 85.556,108.354 85.329,108.175 85.137 C 107.753 84.684,107.333 83.793,107.333 83.350 C 107.333 83.157,107.251 83.000,107.151 83.000 C 107.035 83.000,106.989 82.696,107.026 82.168 C 107.064 81.611,107.015 81.310,106.875 81.257 C 106.756 81.211,106.667 80.889,106.667 80.505 L 106.667 79.833 101.625 79.836 C 98.852 79.837,96.502 79.894,96.402 79.961 C 96.090 80.172,95.998 80.833,96.282 80.833 C 96.491 80.833,96.523 81.093,96.474 82.417 C 96.443 83.288,96.473 84.000,96.542 84.000 C 96.610 84.000,96.667 84.189,96.667 84.419 C 96.667 84.649,96.733 84.968,96.814 85.127 C 97.123 85.735,97.318 86.269,97.420 86.792 C 97.479 87.090,97.596 87.333,97.680 87.333 C 97.764 87.333,97.833 87.475,97.833 87.649 C 97.833 87.822,97.946 88.008,98.083 88.060 C 98.221 88.113,98.333 88.271,98.333 88.411 C 98.333 88.552,98.403 88.667,98.489 88.667 C 98.574 88.667,98.689 88.808,98.744 88.981 C 98.799 89.155,99.010 89.484,99.214 89.713 C 99.417 89.942,99.906 90.513,100.301 90.981 C 100.696 91.450,101.122 91.833,101.248 91.833 C 101.374 91.833,101.525 91.984,101.584 92.169 C 101.643 92.354,101.760 92.462,101.845 92.409 C 101.930 92.357,102.000 92.380,102.000 92.462 C 102.000 92.544,102.206 92.717,102.458 92.847 C 102.710 92.977,103.004 93.199,103.111 93.341 C 103.218 93.483,103.611 93.746,103.984 93.925 C 104.357 94.104,104.664 94.311,104.665 94.385 C 104.666 94.459,104.750 94.468,104.852 94.405 C 104.954 94.342,105.085 94.356,105.144 94.437 C 105.300 94.652,106.660 95.333,106.932 95.333 C 107.061 95.333,107.167 95.399,107.167 95.479 C 107.167 95.558,107.539 95.673,107.993 95.733 C 108.448 95.794,108.865 95.916,108.920 96.005 C 108.975 96.094,109.198 96.167,109.417 96.167 C 109.635 96.167,109.864 96.249,109.927 96.349 C 109.989 96.450,110.293 96.502,110.603 96.466 C 110.913 96.430,111.167 96.460,111.167 96.533 C 111.167 96.607,111.467 96.667,111.833 96.667 C 112.200 96.667,112.500 96.742,112.500 96.833 C 112.500 96.932,113.114 97.000,114.010 97.000 C 114.840 97.000,115.485 97.056,115.442 97.125 C 115.342 97.287,122.223 97.000,122.333 96.838 C 122.379 96.771,123.017 96.663,123.750 96.598 C 124.483 96.533,125.108 96.410,125.139 96.324 C 125.169 96.237,125.334 96.167,125.504 96.167 C 125.674 96.167,125.860 96.092,125.917 96.000 C 125.973 95.908,126.203 95.833,126.427 95.833 C 126.650 95.833,126.833 95.765,126.833 95.682 C 126.833 95.599,126.975 95.568,127.148 95.613 C 127.321 95.659,127.513 95.614,127.574 95.515 C 127.636 95.415,127.832 95.333,128.010 95.333 C 128.188 95.333,128.333 95.258,128.333 95.167 C 128.333 95.075,128.446 95.000,128.583 95.000 C 128.721 95.000,128.833 94.925,128.833 94.833 C 128.833 94.742,128.983 94.667,129.167 94.667 C 129.350 94.667,129.500 94.600,129.500 94.518 C 129.500 94.436,129.686 94.323,129.912 94.266 C 130.461 94.128,131.442 93.451,131.857 92.925 C 132.040 92.691,132.287 92.500,132.404 92.500 C 132.710 92.500,133.667 91.545,133.667 91.239 C 133.667 91.097,133.742 91.027,133.833 91.083 C 133.925 91.140,134.000 91.104,134.000 91.002 C 134.000 90.901,134.169 90.649,134.375 90.441 C 134.723 90.092,134.942 89.705,135.524 88.417 C 135.648 88.142,135.787 87.879,135.833 87.833 C 136.085 87.582,136.366 86.425,136.451 85.287 C 136.505 84.573,136.612 83.950,136.691 83.902 C 136.876 83.787,136.877 81.713,136.692 81.599 C 136.614 81.551,136.507 80.841,136.454 80.022 C 136.401 79.204,136.285 78.395,136.197 78.225 C 135.616 77.107,135.309 76.341,135.389 76.211 C 135.441 76.128,135.337 75.934,135.158 75.781 C 134.979 75.628,134.833 75.390,134.833 75.252 C 134.833 75.113,134.758 75.000,134.667 75.000 C 134.575 75.000,134.500 74.901,134.500 74.779 C 134.500 74.658,134.313 74.382,134.083 74.167 C 133.854 73.951,133.667 73.676,133.667 73.554 C 133.667 73.433,133.587 73.333,133.490 73.333 C 133.393 73.333,133.350 73.275,133.394 73.203 C 133.439 73.131,133.214 72.894,132.895 72.675 C 132.576 72.457,132.242 72.141,132.152 71.972 C 132.062 71.804,131.915 71.667,131.826 71.667 C 131.737 71.667,131.428 71.442,131.140 71.167 C 130.853 70.892,130.513 70.667,130.387 70.667 C 130.260 70.667,130.113 70.554,130.060 70.417 C 130.008 70.279,129.832 70.167,129.669 70.167 C 129.507 70.167,129.281 70.054,129.167 69.917 C 129.053 69.779,128.856 69.667,128.730 69.667 C 128.603 69.667,128.500 69.609,128.500 69.539 C 128.500 69.405,127.283 68.833,126.999 68.833 C 126.908 68.833,126.833 68.764,126.833 68.680 C 126.833 68.596,126.603 68.476,126.322 68.414 C 126.041 68.352,125.774 68.205,125.728 68.087 C 125.683 67.969,125.351 67.825,124.990 67.768 C 124.629 67.710,124.333 67.589,124.333 67.498 C 124.333 67.407,124.150 67.333,123.927 67.333 C 123.703 67.333,123.479 67.268,123.430 67.189 C 123.381 67.109,123.036 66.995,122.663 66.935 C 122.290 66.876,121.839 66.753,121.659 66.664 C 121.480 66.574,121.194 66.431,121.024 66.347 C 120.855 66.263,120.368 66.142,119.943 66.079 C 119.518 66.015,119.211 65.896,119.262 65.815 C 119.312 65.733,119.124 65.667,118.843 65.667 C 118.563 65.667,118.333 65.594,118.333 65.505 C 118.333 65.416,118.218 65.388,118.077 65.442 C 117.936 65.496,117.691 65.422,117.531 65.278 C 117.372 65.134,116.925 64.965,116.537 64.903 C 116.150 64.841,115.833 64.725,115.833 64.645 C 115.833 64.565,115.689 64.500,115.514 64.500 C 115.338 64.500,114.981 64.394,114.722 64.265 C 114.462 64.136,114.063 63.957,113.833 63.866 C 113.604 63.775,113.143 63.581,112.808 63.434 C 112.473 63.287,112.117 63.167,112.016 63.167 C 111.916 63.167,111.833 63.097,111.833 63.011 C 111.833 62.926,111.665 62.802,111.459 62.737 C 111.253 62.672,111.008 62.513,110.914 62.385 C 110.821 62.257,110.560 62.061,110.334 61.948 C 110.108 61.836,109.831 61.559,109.719 61.333 C 109.606 61.107,109.417 60.846,109.299 60.753 C 108.948 60.477,108.615 59.709,108.723 59.428 C 108.778 59.284,108.750 59.167,108.661 59.167 C 108.573 59.167,108.500 58.679,108.500 58.083 C 108.500 57.487,108.565 57.000,108.644 57.000 C 108.723 57.000,108.751 56.813,108.707 56.583 C 108.661 56.340,108.705 56.167,108.814 56.167 C 108.916 56.167,109.000 56.007,109.000 55.811 C 109.000 55.615,109.188 55.281,109.417 55.069 C 109.646 54.856,109.833 54.567,109.833 54.425 C 109.833 54.283,109.906 54.167,109.994 54.167 C 110.083 54.167,110.401 53.958,110.703 53.703 C 111.181 53.297,111.637 53.047,113.278 52.291 C 113.477 52.200,113.871 52.159,114.153 52.200 C 114.436 52.242,114.667 52.205,114.667 52.119 C 114.667 51.870,120.376 52.045,120.460 52.296 C 120.497 52.408,120.665 52.500,120.834 52.500 C 121.184 52.500,122.164 53.021,122.166 53.208 C 122.166 53.277,122.284 53.333,122.426 53.333 C 122.767 53.333,123.997 54.324,124.185 54.750 C 124.357 55.139,124.708 55.714,124.847 55.833 C 124.900 55.879,125.049 56.160,125.179 56.458 C 125.309 56.756,125.458 57.000,125.512 57.000 C 125.565 57.000,125.576 57.224,125.536 57.498 C 125.484 57.850,125.541 58.026,125.731 58.099 C 125.928 58.175,126.000 58.422,126.000 59.018 L 126.000 59.833 131.275 59.833 L 136.551 59.833 136.429 57.958 C 136.362 56.927,136.300 55.990,136.292 55.875 C 136.284 55.760,136.215 55.667,136.139 55.667 C 136.063 55.667,136.000 55.400,136.000 55.073 C 136.000 54.720,135.933 54.522,135.833 54.583 C 135.739 54.642,135.667 54.502,135.667 54.260 C 135.667 54.025,135.601 53.833,135.521 53.833 C 135.441 53.833,135.329 53.602,135.272 53.319 C 135.216 53.037,135.019 52.594,134.835 52.335 C 134.651 52.077,134.500 51.791,134.500 51.700 C 134.500 51.610,134.387 51.492,134.250 51.440 C 134.112 51.387,134.000 51.227,134.000 51.083 C 134.000 50.940,133.737 50.593,133.417 50.311 C 133.096 50.029,132.833 49.707,132.833 49.595 C 132.833 49.364,132.143 48.670,131.906 48.661 C 131.820 48.658,131.413 48.320,131.000 47.909 C 130.588 47.499,130.119 47.121,129.959 47.070 C 129.798 47.019,129.667 46.908,129.667 46.822 C 129.667 46.737,129.558 46.667,129.426 46.667 C 129.294 46.667,129.081 46.517,128.953 46.334 C 128.825 46.152,128.680 46.043,128.630 46.092 C 128.581 46.141,128.153 45.953,127.680 45.674 C 127.206 45.395,126.691 45.166,126.534 45.166 C 126.378 45.165,126.035 45.053,125.773 44.916 C 125.510 44.779,125.187 44.667,125.054 44.667 C 124.922 44.667,124.851 44.607,124.896 44.533 C 124.941 44.460,124.702 44.382,124.364 44.359 C 124.026 44.337,123.729 44.260,123.704 44.189 C 123.679 44.117,123.444 44.090,123.182 44.129 C 122.920 44.167,122.655 44.116,122.593 44.016 C 122.531 43.916,122.079 43.833,121.587 43.833 C 121.096 43.833,120.669 43.777,120.639 43.708 C 120.608 43.640,118.648 43.628,116.283 43.684 M253.333 43.708 C 253.333 43.777,252.921 43.833,252.417 43.833 C 251.912 43.833,251.500 43.908,251.500 44.000 C 251.500 44.092,251.294 44.166,251.042 44.166 C 250.493 44.165,249.000 44.677,249.000 44.866 C 249.000 44.940,248.852 45.000,248.672 45.000 C 248.280 45.000,247.104 45.590,246.824 45.928 C 246.715 46.059,246.523 46.167,246.396 46.167 C 246.270 46.167,246.167 46.246,246.167 46.343 C 246.167 46.440,246.092 46.473,246.000 46.417 C 245.908 46.360,245.833 46.393,245.833 46.490 C 245.833 46.587,245.750 46.667,245.649 46.667 C 245.548 46.667,245.317 46.854,245.137 47.083 C 244.957 47.313,244.716 47.500,244.601 47.500 C 244.368 47.500,242.167 49.613,242.167 49.837 C 242.167 49.915,241.942 50.226,241.667 50.527 C 241.392 50.828,241.167 51.154,241.167 51.250 C 241.167 51.347,241.017 51.535,240.833 51.667 C 240.650 51.799,240.500 52.003,240.500 52.120 C 240.500 52.237,240.425 52.333,240.333 52.333 C 240.242 52.333,240.167 52.486,240.167 52.672 C 240.167 52.858,240.054 53.054,239.917 53.106 C 239.779 53.159,239.667 53.344,239.667 53.518 C 239.667 53.691,239.592 53.833,239.500 53.833 C 239.408 53.833,239.333 54.021,239.333 54.250 C 239.333 54.479,239.264 54.667,239.180 54.667 C 239.096 54.667,238.977 54.891,238.917 55.165 C 238.857 55.439,238.738 55.706,238.654 55.758 C 238.569 55.810,238.500 56.041,238.500 56.270 C 238.500 56.499,238.436 56.647,238.357 56.598 C 238.279 56.550,238.249 56.687,238.290 56.902 C 238.331 57.118,238.283 57.345,238.182 57.407 C 238.082 57.469,238.000 57.740,238.000 58.010 C 238.000 58.279,237.925 58.500,237.833 58.500 C 237.742 58.500,237.667 58.758,237.667 59.073 C 237.667 59.389,237.592 59.693,237.500 59.750 C 237.408 59.807,237.333 60.209,237.333 60.643 C 237.333 61.078,237.253 61.514,237.155 61.612 C 237.045 61.722,236.997 62.431,237.030 63.479 C 237.060 64.414,237.016 65.167,236.933 65.167 C 236.708 65.166,236.925 78.825,237.153 79.053 C 237.252 79.152,237.333 79.551,237.333 79.940 C 237.333 80.329,237.408 80.693,237.500 80.750 C 237.592 80.807,237.667 81.144,237.667 81.500 C 237.667 81.856,237.742 82.193,237.833 82.250 C 237.925 82.307,238.000 82.611,238.000 82.927 C 238.000 83.242,238.084 83.500,238.186 83.500 C 238.295 83.500,238.339 83.674,238.291 83.922 C 238.247 84.155,238.250 84.306,238.297 84.258 C 238.428 84.128,238.771 84.868,238.901 85.557 C 238.964 85.892,239.087 86.167,239.174 86.167 C 239.262 86.167,239.333 86.317,239.333 86.500 C 239.333 86.683,239.408 86.833,239.500 86.833 C 239.592 86.833,239.667 86.946,239.667 87.083 C 239.667 87.221,239.746 87.333,239.843 87.333 C 239.940 87.333,239.977 87.403,239.924 87.488 C 239.871 87.574,239.904 87.691,239.997 87.748 C 240.090 87.806,240.167 87.982,240.167 88.140 C 240.167 88.297,240.317 88.535,240.500 88.667 C 240.683 88.799,240.833 89.003,240.833 89.120 C 240.833 89.237,240.903 89.333,240.989 89.333 C 241.074 89.333,241.194 89.489,241.254 89.679 C 241.314 89.869,241.938 90.600,242.640 91.302 C 243.342 92.004,243.898 92.636,243.875 92.706 C 243.852 92.776,243.939 92.833,244.069 92.833 C 244.198 92.833,244.493 93.058,244.724 93.333 C 244.956 93.608,245.257 93.833,245.395 93.833 C 245.532 93.833,245.691 93.980,245.747 94.158 C 245.804 94.337,245.945 94.447,246.061 94.402 C 246.176 94.358,246.409 94.474,246.578 94.661 C 246.747 94.847,246.986 95.000,247.109 95.000 C 247.232 95.000,247.333 95.075,247.333 95.167 C 247.333 95.258,247.474 95.333,247.646 95.333 C 247.818 95.333,248.053 95.446,248.167 95.583 C 248.281 95.721,248.496 95.834,248.645 95.836 C 248.947 95.839,249.970 96.180,250.288 96.384 C 250.400 96.456,250.888 96.559,251.371 96.614 C 251.854 96.668,252.355 96.796,252.483 96.897 C 252.793 97.143,260.388 97.131,260.698 96.884 C 260.818 96.788,261.394 96.658,261.977 96.595 C 262.561 96.531,263.161 96.415,263.311 96.337 C 263.859 96.051,264.805 95.667,264.960 95.667 C 265.234 95.667,267.243 94.597,267.383 94.376 C 267.457 94.261,267.607 94.167,267.718 94.167 C 267.829 94.167,268.110 93.991,268.342 93.775 C 268.574 93.560,268.845 93.354,268.945 93.317 C 269.264 93.199,270.394 92.104,271.167 91.163 C 271.579 90.661,271.973 90.225,272.042 90.194 C 272.110 90.164,272.167 90.000,272.167 89.831 C 272.167 89.661,272.318 89.475,272.502 89.416 C 272.687 89.357,272.801 89.249,272.755 89.175 C 272.709 89.101,272.774 88.825,272.899 88.562 C 273.023 88.299,273.228 87.840,273.353 87.542 C 273.479 87.244,273.638 87.000,273.707 87.000 C 273.777 87.000,273.833 86.849,273.833 86.664 C 273.833 86.344,273.886 86.198,274.292 85.402 C 274.390 85.210,274.522 84.628,274.587 84.108 C 274.652 83.588,274.772 83.121,274.853 83.071 C 274.934 83.021,275.000 82.539,275.000 82.000 C 275.000 81.461,275.075 80.973,275.167 80.917 C 275.258 80.860,275.333 80.593,275.333 80.323 L 275.333 79.833 273.160 79.833 C 270.647 79.833,270.560 79.874,270.641 81.021 C 270.678 81.534,270.632 81.833,270.516 81.833 C 270.414 81.833,270.333 82.125,270.333 82.490 C 270.333 82.851,270.258 83.193,270.167 83.250 C 270.075 83.307,270.000 83.541,270.000 83.770 C 270.000 83.999,269.941 84.150,269.869 84.106 C 269.798 84.061,269.741 84.226,269.744 84.471 C 269.748 84.755,269.670 84.900,269.529 84.871 C 269.377 84.839,269.342 84.931,269.415 85.162 C 269.477 85.357,269.447 85.500,269.345 85.500 C 269.247 85.500,269.167 85.593,269.167 85.706 C 269.167 86.062,268.274 87.734,267.879 88.117 C 267.670 88.319,267.500 88.551,267.500 88.632 C 267.500 88.780,265.861 90.333,265.705 90.333 C 265.660 90.333,265.501 90.470,265.353 90.637 C 265.080 90.945,264.557 91.245,263.500 91.701 C 263.179 91.840,262.715 92.049,262.470 92.165 C 262.224 92.282,261.905 92.333,261.761 92.277 C 261.618 92.222,261.500 92.250,261.500 92.339 C 261.500 92.427,261.279 92.500,261.010 92.500 C 260.740 92.500,260.473 92.575,260.417 92.667 C 260.360 92.758,259.943 92.833,259.490 92.833 C 259.037 92.833,258.667 92.908,258.667 93.000 C 258.667 93.102,257.861 93.167,256.583 93.167 C 255.306 93.167,254.500 93.102,254.500 93.000 C 254.500 92.908,254.129 92.833,253.677 92.833 C 253.224 92.833,252.809 92.763,252.756 92.676 C 252.703 92.590,252.323 92.469,251.913 92.407 C 251.502 92.346,251.167 92.247,251.167 92.188 C 251.167 92.089,250.921 91.964,249.833 91.509 C 249.294 91.283,248.908 91.023,248.274 90.458 C 247.991 90.206,247.693 90.000,247.613 90.000 C 247.394 90.000,246.333 88.897,246.333 88.669 C 246.333 88.560,246.071 88.239,245.750 87.955 C 245.429 87.671,245.167 87.302,245.167 87.136 C 245.167 86.970,245.097 86.833,245.012 86.833 C 244.927 86.833,244.749 86.627,244.617 86.375 C 244.485 86.123,244.113 85.421,243.790 84.815 C 243.467 84.209,243.152 83.478,243.089 83.192 C 243.026 82.905,242.905 82.628,242.821 82.575 C 242.736 82.523,242.667 82.227,242.667 81.917 C 242.667 81.607,242.592 81.307,242.500 81.250 C 242.408 81.193,242.333 80.926,242.333 80.657 C 242.333 80.387,242.251 80.167,242.151 80.167 C 242.035 80.167,241.989 79.862,242.026 79.333 C 242.057 78.875,242.027 78.500,241.958 78.500 C 241.890 78.500,241.833 77.642,241.833 76.593 C 241.833 75.502,241.762 74.642,241.667 74.583 C 241.563 74.519,241.500 72.943,241.500 70.407 C 241.500 67.802,241.560 66.333,241.667 66.333 C 241.769 66.333,241.833 65.500,241.833 64.167 C 241.833 62.975,241.892 62.000,241.963 62.000 C 242.034 62.000,242.063 61.693,242.027 61.319 C 241.991 60.944,242.046 60.554,242.148 60.452 C 242.250 60.350,242.333 60.061,242.333 59.810 C 242.333 59.559,242.408 59.307,242.500 59.250 C 242.592 59.193,242.667 59.010,242.667 58.843 C 242.667 58.675,242.779 58.323,242.916 58.061 C 243.053 57.798,243.165 57.452,243.166 57.292 C 243.166 57.131,243.242 57.000,243.333 57.000 C 243.425 57.000,243.500 56.843,243.500 56.650 C 243.500 56.168,244.005 55.129,244.367 54.866 C 244.532 54.746,244.667 54.537,244.667 54.402 C 244.667 54.267,244.779 54.113,244.917 54.060 C 245.054 54.008,245.167 53.823,245.167 53.650 C 245.167 53.477,245.317 53.242,245.500 53.128 C 245.683 53.013,245.833 52.825,245.833 52.710 C 245.833 52.468,247.089 51.167,247.322 51.167 C 247.408 51.167,247.525 51.017,247.583 50.833 C 247.642 50.650,247.829 50.500,247.999 50.500 C 248.170 50.500,248.446 50.329,248.613 50.119 C 248.780 49.910,249.195 49.608,249.535 49.448 C 249.874 49.289,250.198 49.085,250.253 48.996 C 250.308 48.906,250.536 48.833,250.760 48.833 C 250.984 48.833,251.167 48.762,251.167 48.674 C 251.167 48.587,251.430 48.466,251.752 48.405 C 252.074 48.345,252.378 48.229,252.428 48.148 C 252.479 48.066,252.853 48.000,253.260 48.000 C 253.667 48.000,254.000 47.925,254.000 47.833 C 254.000 47.729,255.028 47.667,256.750 47.667 C 258.267 47.667,259.500 47.734,259.500 47.817 C 259.500 47.899,259.819 48.004,260.208 48.051 C 261.029 48.149,262.545 48.523,262.667 48.658 C 262.857 48.868,263.821 49.333,264.067 49.333 C 264.214 49.333,264.333 49.408,264.333 49.500 C 264.333 49.592,264.446 49.667,264.584 49.667 C 264.723 49.667,264.999 49.854,265.198 50.083 C 265.397 50.313,265.611 50.500,265.674 50.500 C 265.851 50.500,267.500 52.036,267.500 52.201 C 267.500 52.283,267.673 52.514,267.884 52.716 C 268.318 53.130,268.833 54.150,268.833 54.595 C 268.833 54.756,268.882 54.840,268.942 54.780 C 269.082 54.640,269.500 55.443,269.500 55.852 C 269.500 56.025,269.584 56.167,269.686 56.167 C 269.790 56.167,269.834 56.314,269.785 56.500 C 269.737 56.684,269.766 56.792,269.849 56.740 C 269.932 56.689,270.000 56.909,270.000 57.230 C 270.000 57.551,270.075 57.860,270.167 57.917 C 270.258 57.973,270.333 58.240,270.333 58.510 C 270.333 58.779,270.408 59.000,270.500 59.000 C 270.592 59.000,270.667 59.377,270.667 59.838 L 270.667 60.676 272.958 60.630 L 275.250 60.583 275.302 60.042 C 275.332 59.737,275.277 59.500,275.177 59.500 C 275.072 59.500,275.000 59.098,275.000 58.510 C 275.000 57.965,274.932 57.478,274.850 57.427 C 274.767 57.376,274.647 56.884,274.583 56.333 C 274.519 55.783,274.400 55.291,274.317 55.240 C 274.234 55.189,274.167 54.964,274.167 54.740 C 274.167 54.516,274.092 54.333,274.000 54.333 C 273.908 54.333,273.833 54.221,273.833 54.083 C 273.833 53.946,273.758 53.833,273.667 53.833 C 273.575 53.833,273.500 53.650,273.500 53.427 C 273.500 53.203,273.420 52.970,273.322 52.910 C 273.224 52.849,273.184 52.695,273.233 52.566 C 273.283 52.438,273.250 52.333,273.161 52.333 C 273.073 52.333,273.000 52.221,273.000 52.083 C 273.000 51.946,272.934 51.833,272.853 51.833 C 272.772 51.833,272.661 51.702,272.608 51.542 C 272.478 51.155,272.183 50.703,271.621 50.032 C 271.367 49.729,271.210 49.398,271.272 49.298 C 271.340 49.188,271.308 49.163,271.192 49.234 C 271.075 49.306,271.000 49.240,271.000 49.065 C 271.000 48.907,270.954 48.824,270.897 48.880 C 270.765 49.013,269.848 48.124,269.946 47.958 C 269.986 47.890,269.898 47.833,269.750 47.833 C 269.589 47.833,269.528 47.756,269.599 47.641 C 269.673 47.521,269.645 47.494,269.524 47.569 C 269.412 47.638,269.112 47.471,268.819 47.178 C 268.538 46.897,268.201 46.667,268.071 46.667 C 267.940 46.667,267.833 46.597,267.833 46.511 C 267.833 46.426,267.685 46.309,267.503 46.251 C 267.322 46.193,266.745 45.888,266.221 45.573 C 265.698 45.258,265.138 45.000,264.978 45.000 C 264.817 45.000,264.438 44.857,264.135 44.682 C 263.831 44.508,263.171 44.312,262.667 44.247 C 262.162 44.182,261.657 44.054,261.543 43.962 C 261.302 43.767,253.333 43.521,253.333 43.708 M144.085 44.305 C 143.942 44.678,143.996 96.068,144.139 96.294 C 144.243 96.458,145.448 96.495,149.595 96.461 L 154.917 96.417 154.960 85.625 L 155.002 74.833 157.751 74.833 C 159.975 74.833,160.500 74.877,160.500 75.063 C 160.500 75.189,160.620 75.392,160.767 75.514 C 160.914 75.636,161.102 75.889,161.184 76.076 C 161.394 76.558,161.722 77.063,161.912 77.199 C 162.001 77.263,162.020 77.369,161.955 77.434 C 161.889 77.500,161.985 77.658,162.168 77.786 C 162.350 77.914,162.500 78.098,162.500 78.194 C 162.500 78.290,162.689 78.604,162.919 78.893 C 163.150 79.181,163.397 79.492,163.469 79.583 C 163.541 79.675,163.650 79.862,163.711 80.000 C 163.773 80.137,164.051 80.625,164.330 81.083 C 164.608 81.542,164.881 82.043,164.935 82.197 C 164.989 82.351,165.138 82.517,165.266 82.567 C 165.395 82.616,165.500 82.808,165.500 82.993 C 165.500 83.179,165.650 83.424,165.833 83.539 C 166.017 83.653,166.167 83.825,166.167 83.920 C 166.167 84.015,166.313 84.198,166.491 84.327 C 166.669 84.455,166.776 84.625,166.727 84.704 C 166.678 84.783,166.832 85.102,167.069 85.413 C 167.306 85.724,167.500 86.046,167.500 86.130 C 167.500 86.213,167.650 86.417,167.833 86.583 C 168.017 86.749,168.167 86.968,168.167 87.069 C 168.167 87.170,168.323 87.351,168.514 87.470 C 168.705 87.589,168.825 87.781,168.781 87.897 C 168.736 88.013,168.842 88.196,169.017 88.305 C 169.191 88.414,169.333 88.602,169.333 88.724 C 169.333 88.845,169.633 89.373,170.000 89.896 C 170.367 90.420,170.667 90.908,170.667 90.982 C 170.667 91.055,170.817 91.251,171.000 91.417 C 171.183 91.583,171.333 91.819,171.333 91.942 C 171.333 92.066,171.390 92.167,171.458 92.168 C 171.621 92.169,172.167 93.128,172.167 93.412 C 172.167 93.533,172.279 93.674,172.417 93.727 C 172.554 93.780,172.667 93.980,172.667 94.171 C 172.667 94.363,172.727 94.482,172.801 94.437 C 172.875 94.391,173.074 94.612,173.244 94.927 C 173.414 95.242,173.616 95.500,173.693 95.500 C 173.770 95.500,173.833 95.618,173.833 95.762 C 173.833 96.485,173.977 96.500,180.728 96.500 C 186.872 96.500,187.842 96.429,187.210 96.023 C 187.119 95.965,186.992 95.748,186.928 95.542 C 186.864 95.335,186.741 95.167,186.655 95.167 C 186.570 95.167,186.500 95.054,186.500 94.917 C 186.500 94.779,186.425 94.667,186.333 94.667 C 186.242 94.667,186.167 94.589,186.167 94.493 C 186.167 94.398,186.013 94.154,185.825 93.952 C 185.637 93.750,185.319 93.258,185.120 92.859 C 184.920 92.459,184.643 92.045,184.503 91.939 C 184.226 91.727,183.987 91.370,183.569 90.542 C 183.418 90.244,183.229 90.000,183.148 90.000 C 183.066 90.000,183.000 89.901,183.000 89.779 C 183.000 89.658,182.813 89.382,182.583 89.167 C 182.354 88.951,182.167 88.722,182.167 88.657 C 182.167 88.591,181.848 88.074,181.458 87.507 C 181.069 86.940,180.650 86.289,180.527 86.061 C 180.405 85.832,180.199 85.605,180.069 85.555 C 179.939 85.505,179.833 85.320,179.833 85.144 C 179.833 84.967,179.728 84.782,179.598 84.733 C 179.469 84.683,179.318 84.460,179.262 84.238 C 179.206 84.015,179.087 83.833,178.997 83.833 C 178.907 83.833,178.833 83.721,178.833 83.583 C 178.833 83.446,178.763 83.333,178.678 83.333 C 178.592 83.333,178.481 83.202,178.430 83.042 C 178.379 82.881,178.130 82.528,177.877 82.256 C 177.436 81.782,177.151 81.371,176.893 80.833 C 176.827 80.696,176.632 80.458,176.459 80.304 C 176.286 80.151,176.168 79.984,176.197 79.935 C 176.226 79.885,176.119 79.691,175.958 79.503 C 175.798 79.316,175.667 79.049,175.667 78.910 C 175.667 78.770,175.554 78.613,175.417 78.560 C 175.279 78.508,175.167 78.340,175.167 78.189 C 175.167 78.037,175.017 77.820,174.833 77.705 C 174.650 77.591,174.500 77.385,174.500 77.249 C 174.500 77.112,174.430 77.000,174.345 77.000 C 174.259 77.000,174.136 76.831,174.071 76.625 C 174.006 76.419,173.813 76.129,173.643 75.980 C 173.473 75.832,173.333 75.625,173.333 75.521 C 173.333 75.417,173.152 75.173,172.930 74.981 C 172.708 74.788,172.481 74.448,172.425 74.225 C 172.369 74.002,172.251 73.865,172.162 73.920 C 172.073 73.975,172.000 73.900,172.000 73.753 C 172.000 73.606,171.926 73.395,171.836 73.285 C 170.996 72.255,170.806 71.972,170.895 71.883 C 170.952 71.826,170.848 71.675,170.666 71.547 C 170.483 71.419,170.333 71.234,170.333 71.135 C 170.333 71.036,170.202 70.833,170.042 70.684 C 169.718 70.383,169.478 70.017,169.070 69.210 C 168.920 68.913,168.742 68.703,168.676 68.744 C 168.610 68.785,168.556 68.709,168.556 68.576 C 168.556 68.443,168.653 68.333,168.773 68.333 C 168.893 68.333,168.949 68.226,168.897 68.093 C 168.846 67.959,168.951 67.763,169.136 67.647 C 169.318 67.534,169.432 67.350,169.389 67.239 C 169.347 67.128,169.534 66.880,169.804 66.687 C 170.075 66.495,170.342 66.154,170.399 65.930 C 170.455 65.706,170.651 65.475,170.834 65.417 C 171.017 65.358,171.167 65.166,171.167 64.989 C 171.167 64.812,171.240 64.667,171.330 64.667 C 171.420 64.667,171.541 64.478,171.599 64.247 C 171.657 64.017,171.864 63.698,172.060 63.539 C 172.256 63.380,172.523 63.044,172.653 62.792 C 172.783 62.540,172.952 62.333,173.028 62.333 C 173.104 62.333,173.167 62.234,173.167 62.112 C 173.167 61.991,173.354 61.715,173.583 61.500 C 173.813 61.285,174.000 61.022,174.000 60.917 C 174.000 60.811,174.188 60.549,174.417 60.333 C 174.646 60.118,174.833 59.845,174.833 59.727 C 174.833 59.609,174.990 59.428,175.181 59.326 C 175.372 59.223,175.483 59.094,175.428 59.039 C 175.373 58.984,175.546 58.709,175.814 58.428 C 176.081 58.147,176.447 57.637,176.627 57.296 C 176.806 56.955,176.994 56.717,177.045 56.767 C 177.095 56.817,177.186 56.703,177.246 56.513 C 177.306 56.322,177.426 56.167,177.511 56.167 C 177.597 56.167,177.667 56.072,177.667 55.957 C 177.667 55.841,177.854 55.544,178.083 55.297 C 178.313 55.050,178.500 54.770,178.500 54.675 C 178.500 54.580,178.650 54.409,178.833 54.295 C 179.017 54.180,179.167 54.004,179.167 53.902 C 179.167 53.649,179.761 52.983,179.881 53.103 C 179.934 53.156,179.936 53.042,179.886 52.850 C 179.836 52.657,179.871 52.500,179.965 52.500 C 180.128 52.500,181.333 50.942,181.333 50.732 C 181.333 50.677,181.521 50.484,181.750 50.304 C 181.979 50.123,182.167 49.859,182.167 49.716 C 182.167 49.573,182.328 49.316,182.526 49.145 C 182.723 48.973,182.826 48.833,182.756 48.833 C 182.685 48.833,182.861 48.594,183.147 48.302 C 183.433 48.009,183.667 47.699,183.667 47.612 C 183.667 47.526,183.854 47.281,184.083 47.069 C 184.313 46.856,184.500 46.564,184.500 46.419 C 184.500 46.275,184.612 46.113,184.750 46.060 C 184.887 46.008,185.000 45.873,185.000 45.761 C 185.000 45.650,185.188 45.382,185.417 45.167 C 186.483 44.165,186.494 44.167,179.345 44.167 L 172.858 44.167 172.514 44.625 C 171.751 45.642,171.514 46.012,171.392 46.375 C 171.339 46.535,171.224 46.667,171.139 46.667 C 171.053 46.667,170.873 46.929,170.739 47.250 C 170.605 47.571,170.380 47.833,170.238 47.833 C 170.096 47.833,170.025 47.906,170.080 47.994 C 170.134 48.082,169.988 48.456,169.756 48.824 C 169.524 49.192,169.333 49.536,169.333 49.587 C 169.333 49.687,169.236 49.812,168.581 50.550 C 168.353 50.807,168.167 51.126,168.167 51.259 C 168.167 51.391,168.104 51.500,168.028 51.500 C 167.952 51.500,167.784 51.706,167.656 51.958 C 167.336 52.583,166.777 53.405,166.625 53.472 C 166.556 53.503,166.500 53.634,166.500 53.764 C 166.500 53.894,166.425 54.000,166.333 54.000 C 166.242 54.000,166.167 54.146,166.167 54.324 C 166.167 54.502,166.035 54.746,165.875 54.866 C 165.715 54.985,165.443 55.360,165.271 55.699 C 165.099 56.037,164.855 56.353,164.729 56.402 C 164.603 56.450,164.500 56.644,164.500 56.833 C 164.500 57.022,164.387 57.220,164.250 57.273 C 164.112 57.326,164.000 57.513,164.000 57.690 C 164.000 57.866,163.893 58.051,163.763 58.101 C 163.633 58.151,163.407 58.489,163.262 58.852 C 163.117 59.214,162.886 59.554,162.749 59.607 C 162.612 59.659,162.500 59.839,162.500 60.007 C 162.500 60.174,162.354 60.357,162.175 60.414 C 161.997 60.471,161.886 60.610,161.929 60.723 C 161.973 60.836,161.875 61.080,161.712 61.265 C 161.335 61.694,161.043 62.149,160.835 62.629 C 160.745 62.838,160.558 63.052,160.419 63.105 C 160.280 63.159,160.167 63.341,160.167 63.510 C 160.167 63.679,160.073 63.877,159.958 63.950 C 159.843 64.023,159.637 64.308,159.500 64.583 C 159.054 65.476,158.988 65.500,156.929 65.500 L 155.000 65.500 155.000 54.838 L 155.000 44.176 149.585 44.129 C 145.197 44.092,144.154 44.125,144.085 44.305 M220.667 44.258 C 220.667 44.525,220.266 45.331,220.133 45.332 C 220.068 45.333,219.966 45.596,219.906 45.917 C 219.845 46.237,219.736 46.500,219.661 46.500 C 219.587 46.500,219.476 46.730,219.414 47.011 C 219.352 47.292,219.201 47.561,219.078 47.609 C 218.955 47.656,218.806 47.912,218.747 48.179 C 218.689 48.445,218.572 48.706,218.487 48.758 C 218.403 48.810,218.333 48.999,218.333 49.177 C 218.333 49.354,218.264 49.500,218.180 49.500 C 218.096 49.500,217.977 49.727,217.916 50.004 C 217.752 50.748,216.570 53.013,216.418 52.872 C 216.346 52.805,216.323 52.862,216.367 53.000 C 216.410 53.137,216.308 53.496,216.140 53.797 C 215.971 54.097,215.833 54.491,215.833 54.672 C 215.833 54.852,215.766 55.000,215.685 55.000 C 215.603 55.000,215.486 55.202,215.424 55.448 C 215.362 55.695,215.166 56.100,214.989 56.349 C 214.812 56.598,214.667 56.884,214.667 56.984 C 214.667 57.084,214.594 57.167,214.505 57.167 C 214.416 57.167,214.387 57.279,214.439 57.415 C 214.493 57.555,214.422 57.707,214.278 57.762 C 214.137 57.817,214.056 57.951,214.098 58.061 C 214.140 58.172,214.023 58.425,213.837 58.624 C 213.652 58.823,213.500 59.102,213.500 59.243 C 213.500 59.384,213.416 59.500,213.314 59.500 C 213.205 59.500,213.161 59.673,213.207 59.917 C 213.251 60.146,213.237 60.333,213.175 60.333 C 213.113 60.333,212.959 60.596,212.833 60.917 C 212.707 61.237,212.535 61.500,212.451 61.500 C 212.367 61.500,212.341 61.612,212.394 61.750 C 212.446 61.887,212.431 62.000,212.359 62.000 C 212.288 62.000,212.126 62.262,212.000 62.583 C 211.874 62.904,211.712 63.167,211.641 63.167 C 211.569 63.167,211.547 63.263,211.593 63.381 C 211.638 63.499,211.523 63.758,211.337 63.957 C 211.152 64.156,211.000 64.393,211.000 64.484 C 211.000 64.574,210.857 64.896,210.683 65.199 C 210.508 65.502,210.315 65.994,210.253 66.292 C 210.191 66.590,210.071 66.833,209.987 66.833 C 209.902 66.833,209.833 66.946,209.833 67.083 C 209.833 67.221,209.758 67.333,209.667 67.333 C 209.575 67.333,209.500 67.462,209.500 67.619 C 209.500 67.983,208.887 66.790,208.747 66.152 C 208.689 65.887,208.572 65.628,208.487 65.575 C 208.403 65.523,208.333 65.335,208.333 65.157 C 208.333 64.979,208.262 64.833,208.174 64.833 C 208.087 64.833,207.966 64.571,207.906 64.250 C 207.845 63.929,207.743 63.667,207.679 63.667 C 207.493 63.667,206.823 62.318,206.926 62.151 C 206.978 62.068,206.896 62.000,206.746 62.000 C 206.595 62.000,206.505 61.906,206.546 61.792 C 206.586 61.677,206.488 61.396,206.328 61.167 C 205.980 60.666,205.657 59.571,205.808 59.401 C 205.868 59.334,205.836 59.326,205.736 59.382 C 205.635 59.440,205.458 59.233,205.330 58.909 C 205.206 58.592,205.043 58.333,204.969 58.333 C 204.894 58.333,204.849 58.277,204.868 58.208 C 204.914 58.044,204.359 56.873,203.960 56.293 C 203.787 56.041,203.692 55.760,203.749 55.668 C 203.806 55.576,203.774 55.500,203.677 55.500 C 203.579 55.500,203.500 55.387,203.500 55.250 C 203.500 55.112,203.425 55.000,203.333 55.000 C 203.242 55.000,203.167 54.843,203.167 54.650 C 203.167 54.255,202.757 53.302,202.304 52.641 C 202.137 52.398,202.000 52.084,202.000 51.945 C 202.000 51.805,201.904 51.591,201.786 51.470 C 201.487 51.162,200.667 49.439,200.667 49.118 C 200.667 48.972,200.592 48.807,200.500 48.750 C 200.408 48.693,200.333 48.501,200.333 48.323 C 200.333 48.146,200.277 47.999,200.208 47.998 C 200.140 47.997,199.671 47.135,199.167 46.083 L 198.250 44.171 192.375 44.169 C 187.635 44.167,186.500 44.209,186.500 44.385 C 186.500 44.740,187.350 46.405,187.605 46.552 C 187.735 46.626,187.797 46.758,187.744 46.844 C 187.690 46.930,187.726 47.000,187.823 47.000 C 187.921 47.000,188.000 47.150,188.000 47.333 C 188.000 47.517,188.075 47.667,188.167 47.667 C 188.258 47.667,188.333 47.817,188.333 48.000 C 188.333 48.183,188.390 48.335,188.458 48.338 C 188.527 48.340,188.808 48.826,189.083 49.419 C 189.358 50.011,189.636 50.497,189.701 50.498 C 189.765 50.499,189.868 50.765,189.929 51.088 C 189.990 51.418,190.182 51.752,190.366 51.851 C 190.550 51.949,190.653 52.129,190.601 52.263 C 190.551 52.393,190.583 52.500,190.672 52.500 C 190.761 52.500,190.833 52.650,190.833 52.833 C 190.833 53.017,190.902 53.167,190.987 53.167 C 191.071 53.167,191.190 53.392,191.250 53.667 C 191.310 53.942,191.429 54.167,191.513 54.167 C 191.598 54.167,191.667 54.279,191.667 54.417 C 191.667 54.554,191.738 54.667,191.826 54.667 C 191.913 54.667,192.035 54.935,192.097 55.263 C 192.158 55.591,192.312 55.899,192.438 55.948 C 192.564 55.996,192.667 56.142,192.667 56.273 C 192.667 56.404,192.779 56.554,192.917 56.606 C 193.054 56.659,193.167 56.804,193.167 56.929 C 193.167 57.175,193.686 58.365,193.853 58.500 C 194.004 58.623,194.240 59.391,194.186 59.583 C 194.160 59.675,194.196 59.692,194.267 59.622 C 194.337 59.552,194.570 59.852,194.783 60.289 C 194.997 60.726,195.322 61.308,195.505 61.583 C 195.688 61.858,195.883 62.215,195.938 62.375 C 195.994 62.535,196.105 62.667,196.186 62.667 C 196.267 62.667,196.319 62.723,196.301 62.792 C 196.283 62.860,196.433 63.269,196.634 63.699 C 196.835 64.130,197.000 64.561,197.000 64.658 C 197.000 64.754,197.075 64.833,197.167 64.833 C 197.258 64.833,197.333 64.983,197.333 65.167 C 197.333 65.350,197.408 65.500,197.500 65.500 C 197.592 65.500,197.667 65.650,197.667 65.833 C 197.667 66.017,197.742 66.167,197.833 66.167 C 197.925 66.167,198.000 66.279,198.000 66.417 C 198.000 66.554,198.067 66.667,198.149 66.667 C 198.230 66.667,198.344 66.854,198.402 67.083 C 198.459 67.313,198.580 67.500,198.670 67.500 C 198.760 67.500,198.833 67.633,198.833 67.795 C 198.833 67.957,199.024 68.371,199.258 68.714 C 199.492 69.058,199.637 69.413,199.582 69.503 C 199.526 69.593,199.541 69.668,199.615 69.669 C 199.689 69.671,199.938 70.064,200.167 70.544 C 200.396 71.024,200.621 71.454,200.667 71.500 C 200.790 71.624,201.153 72.214,201.281 72.500 C 201.342 72.637,201.435 72.787,201.488 72.833 C 201.726 73.041,202.002 73.696,201.912 73.840 C 201.858 73.928,201.893 74.000,201.990 74.000 C 202.087 74.000,202.167 74.154,202.167 74.343 C 202.167 74.532,202.242 74.640,202.333 74.583 C 202.425 74.527,202.500 74.635,202.500 74.823 C 202.500 75.012,202.556 75.167,202.625 75.168 C 202.805 75.170,203.174 76.020,203.069 76.190 C 203.020 76.269,203.060 76.333,203.157 76.333 C 203.254 76.333,203.333 76.416,203.333 76.516 C 203.333 76.616,203.485 76.911,203.669 77.171 C 203.998 77.632,204.005 77.847,203.961 86.995 C 203.917 96.228,203.921 96.349,204.250 96.429 C 204.433 96.474,206.871 96.489,209.667 96.463 L 214.750 96.417 214.833 87.083 C 214.917 77.685,214.986 76.667,215.537 76.667 C 215.608 76.667,215.667 76.553,215.667 76.413 C 215.667 76.130,216.471 74.781,216.692 74.694 C 216.770 74.664,216.833 74.495,216.833 74.319 C 216.833 74.144,216.913 74.000,217.010 74.000 C 217.107 74.000,217.146 73.936,217.098 73.857 C 216.993 73.687,217.362 72.837,217.542 72.835 C 217.610 72.834,217.667 72.721,217.667 72.583 C 217.667 72.446,217.742 72.333,217.833 72.333 C 217.925 72.333,218.000 72.179,218.000 71.990 C 218.000 71.801,218.071 71.691,218.158 71.745 C 218.245 71.798,218.287 71.690,218.251 71.504 C 218.215 71.319,218.238 71.166,218.301 71.165 C 218.365 71.164,218.560 70.864,218.735 70.498 C 218.910 70.132,219.117 69.833,219.193 69.833 C 219.270 69.833,219.333 69.683,219.333 69.500 C 219.333 69.317,219.402 69.167,219.487 69.167 C 219.571 69.167,219.691 68.937,219.752 68.655 C 219.814 68.374,219.970 68.104,220.098 68.055 C 220.226 68.005,220.285 67.890,220.228 67.797 C 220.171 67.705,220.190 67.582,220.270 67.523 C 220.478 67.372,221.333 65.711,221.333 65.458 C 221.333 65.342,221.483 65.153,221.667 65.039 C 221.850 64.924,222.000 64.747,222.000 64.644 C 222.000 64.389,223.046 62.264,223.205 62.194 C 223.276 62.164,223.333 62.034,223.333 61.906 C 223.333 61.778,223.585 61.278,223.893 60.795 C 224.201 60.312,224.781 59.242,225.183 58.417 C 225.584 57.592,225.970 56.892,226.040 56.861 C 226.109 56.831,226.167 56.670,226.167 56.504 C 226.167 56.338,226.279 56.159,226.417 56.106 C 226.554 56.054,226.667 55.858,226.667 55.672 C 226.667 55.486,226.723 55.333,226.793 55.333 C 226.862 55.333,227.021 55.090,227.147 54.792 C 227.596 53.725,228.948 51.141,229.125 51.011 C 229.250 50.919,229.836 49.758,230.435 48.417 C 230.599 48.050,230.778 47.712,230.833 47.667 C 230.889 47.621,231.080 47.295,231.259 46.942 C 231.867 45.741,231.912 45.667,232.040 45.667 C 232.109 45.667,232.167 45.554,232.167 45.417 C 232.167 45.279,232.226 45.167,232.298 45.167 C 232.370 45.167,232.446 44.944,232.467 44.671 L 232.505 44.175 226.586 44.129 C 222.531 44.098,220.667 44.139,220.667 44.258 M369.585 44.305 C 369.329 44.975,369.505 96.300,369.764 96.399 C 369.909 96.454,376.771 96.500,385.014 96.500 L 400.000 96.500 400.000 94.417 L 400.000 92.333 387.083 92.333 L 374.167 92.333 374.167 68.259 L 374.167 44.185 371.918 44.134 C 370.163 44.094,369.651 44.132,369.585 44.305 M299.739 44.316 C 299.790 44.398,299.720 44.679,299.583 44.941 C 299.447 45.203,299.335 45.550,299.334 45.714 C 299.334 45.877,299.221 46.054,299.083 46.106 C 298.946 46.159,298.833 46.363,298.832 46.559 C 298.832 46.756,298.719 47.131,298.582 47.394 C 298.445 47.657,298.333 47.976,298.333 48.105 C 298.333 48.233,298.267 48.468,298.187 48.627 C 297.807 49.379,297.511 50.190,297.403 50.775 C 297.338 51.128,297.240 51.454,297.184 51.500 C 296.960 51.686,296.667 52.350,296.667 52.674 C 296.667 52.896,296.597 52.976,296.472 52.899 C 296.341 52.819,296.311 52.869,296.381 53.051 C 296.438 53.200,296.414 53.367,296.326 53.421 C 296.238 53.475,296.167 53.666,296.167 53.845 C 296.167 54.025,296.098 54.301,296.014 54.461 C 295.668 55.117,295.333 55.983,295.333 56.224 C 295.333 56.365,295.258 56.527,295.167 56.583 C 295.075 56.640,294.998 56.851,294.995 57.052 C 294.992 57.252,294.879 57.562,294.745 57.740 C 294.610 57.918,294.500 58.237,294.500 58.449 C 294.500 58.660,294.444 58.834,294.375 58.835 C 294.225 58.836,293.833 59.644,293.833 59.952 C 293.833 60.073,293.765 60.301,293.681 60.461 C 293.335 61.117,293.000 61.983,293.000 62.224 C 293.000 62.365,292.935 62.521,292.855 62.570 C 292.713 62.658,292.433 63.626,292.478 63.875 C 292.490 63.944,292.395 64.000,292.266 64.000 C 292.123 64.000,292.062 64.116,292.109 64.296 C 292.151 64.458,292.070 64.815,291.927 65.087 C 291.785 65.360,291.668 65.710,291.668 65.865 C 291.667 66.020,291.592 66.193,291.500 66.250 C 291.408 66.307,291.333 66.499,291.333 66.677 C 291.333 66.854,291.258 67.000,291.167 67.000 C 291.075 67.000,291.000 67.146,291.000 67.323 C 291.000 67.501,290.925 67.693,290.833 67.750 C 290.742 67.807,290.667 67.999,290.667 68.177 C 290.667 68.354,290.602 68.500,290.522 68.500 C 290.442 68.500,290.335 68.817,290.283 69.205 C 290.231 69.592,290.108 69.936,290.011 69.969 C 289.913 70.001,289.833 70.205,289.833 70.421 C 289.833 70.637,289.752 70.864,289.652 70.926 C 289.552 70.987,289.508 71.179,289.553 71.352 C 289.598 71.525,289.586 71.667,289.525 71.667 C 289.425 71.667,289.289 71.943,288.909 72.917 C 288.837 73.100,288.769 73.325,288.757 73.417 C 288.745 73.508,288.653 73.567,288.553 73.548 C 288.449 73.528,288.321 73.906,288.256 74.423 C 288.194 74.924,288.084 75.333,288.013 75.333 C 287.876 75.333,287.333 76.879,287.333 77.269 C 287.333 77.396,287.258 77.500,287.167 77.500 C 287.075 77.500,287.000 77.646,287.000 77.823 C 287.000 78.001,286.925 78.193,286.833 78.250 C 286.742 78.307,286.667 78.499,286.667 78.677 C 286.667 78.854,286.594 79.000,286.505 79.000 C 286.416 79.000,286.384 79.105,286.433 79.233 C 286.482 79.361,286.443 79.516,286.345 79.576 C 286.247 79.637,286.167 79.869,286.167 80.093 C 286.167 80.317,286.104 80.500,286.028 80.500 C 285.952 80.500,285.896 80.669,285.903 80.875 C 285.911 81.081,285.827 81.233,285.718 81.212 C 285.601 81.189,285.474 81.478,285.407 81.920 C 285.346 82.331,285.229 82.667,285.148 82.667 C 285.066 82.667,285.000 82.854,285.000 83.083 C 285.000 83.313,284.931 83.500,284.847 83.500 C 284.762 83.500,284.643 83.744,284.581 84.042 C 284.452 84.670,284.059 85.934,283.844 86.417 C 283.762 86.600,283.595 86.994,283.473 87.292 C 283.352 87.590,283.202 87.833,283.142 87.833 C 283.081 87.833,283.068 87.975,283.113 88.148 C 283.159 88.321,283.114 88.513,283.015 88.574 C 282.915 88.636,282.833 88.869,282.833 89.093 C 282.833 89.317,282.777 89.501,282.708 89.501 C 282.559 89.503,282.167 90.310,282.167 90.617 C 282.167 90.736,282.102 90.833,282.023 90.833 C 281.944 90.833,281.915 91.021,281.959 91.250 C 282.006 91.493,281.961 91.667,281.853 91.667 C 281.750 91.667,281.667 91.817,281.667 92.000 C 281.667 92.183,281.592 92.333,281.500 92.333 C 281.408 92.333,281.333 92.491,281.333 92.683 C 281.333 93.003,281.037 93.810,280.653 94.539 C 280.569 94.699,280.500 94.975,280.500 95.155 C 280.500 95.334,280.425 95.527,280.333 95.583 C 280.073 95.744,280.138 96.287,280.430 96.399 C 280.893 96.576,285.029 96.516,284.917 96.333 C 284.860 96.242,284.893 96.167,284.990 96.167 C 285.087 96.167,285.167 96.029,285.167 95.862 C 285.167 95.694,285.354 95.188,285.583 94.737 C 285.811 94.286,285.999 93.715,285.999 93.468 C 286.000 93.221,286.075 92.973,286.167 92.917 C 286.258 92.860,286.333 92.698,286.333 92.557 C 286.333 92.317,286.668 91.450,287.014 90.794 C 287.098 90.635,287.167 90.384,287.167 90.236 C 287.167 90.089,287.308 89.769,287.480 89.526 C 287.652 89.282,287.846 88.765,287.911 88.375 C 287.976 87.985,288.098 87.667,288.181 87.667 C 288.265 87.667,288.333 87.442,288.333 87.167 C 288.333 86.892,288.402 86.667,288.487 86.667 C 288.571 86.667,288.692 86.423,288.756 86.125 C 288.820 85.827,288.928 85.508,288.998 85.417 C 289.067 85.325,289.174 84.969,289.236 84.625 C 289.298 84.281,289.420 84.000,289.508 84.000 C 289.595 84.000,289.667 83.813,289.667 83.583 C 289.667 83.354,289.737 83.167,289.823 83.167 C 289.909 83.167,290.002 82.923,290.031 82.625 L 290.083 82.083 301.814 82.041 C 314.817 81.993,313.982 81.924,313.995 83.052 C 313.998 83.316,314.072 83.475,314.165 83.418 C 314.259 83.359,314.287 83.426,314.230 83.575 C 314.176 83.717,314.214 83.833,314.316 83.833 C 314.417 83.833,314.500 84.016,314.500 84.240 C 314.500 84.464,314.575 84.693,314.667 84.750 C 314.758 84.807,314.833 85.026,314.833 85.237 C 314.833 85.449,314.991 85.822,315.183 86.066 C 315.375 86.310,315.490 86.620,315.438 86.755 C 315.386 86.890,315.416 87.000,315.505 87.000 C 315.594 87.000,315.667 87.188,315.667 87.417 C 315.667 87.646,315.733 87.833,315.814 87.833 C 315.896 87.833,316.013 88.171,316.075 88.583 C 316.136 88.996,316.257 89.333,316.344 89.333 C 316.430 89.333,316.500 89.521,316.500 89.750 C 316.500 89.979,316.575 90.167,316.667 90.167 C 316.758 90.167,316.833 90.324,316.833 90.516 C 316.833 90.709,316.953 91.140,317.100 91.475 C 317.247 91.809,317.443 92.271,317.536 92.500 C 317.629 92.729,317.772 93.047,317.853 93.206 C 317.934 93.365,318.000 93.646,318.000 93.831 C 318.000 94.016,318.074 94.167,318.165 94.167 C 318.255 94.167,318.377 94.467,318.436 94.833 C 318.495 95.200,318.608 95.500,318.688 95.500 C 318.768 95.500,318.833 95.727,318.833 96.005 L 318.833 96.509 321.208 96.463 L 323.583 96.417 323.549 95.681 C 323.530 95.277,323.447 94.902,323.365 94.848 C 323.282 94.794,323.163 94.470,323.100 94.127 C 323.037 93.785,322.830 93.185,322.639 92.794 C 322.448 92.403,322.236 91.968,322.167 91.828 C 322.098 91.687,321.990 91.332,321.925 91.038 C 321.860 90.744,321.738 90.461,321.654 90.409 C 321.569 90.356,321.500 90.161,321.500 89.974 C 321.500 89.788,321.342 89.413,321.149 89.142 C 320.953 88.866,320.836 88.507,320.884 88.325 C 320.931 88.146,320.901 88.042,320.818 88.093 C 320.735 88.144,320.667 88.047,320.667 87.876 C 320.667 87.514,320.299 86.670,320.141 86.668 C 320.080 86.667,319.980 86.292,319.917 85.833 C 319.854 85.375,319.753 84.999,319.693 84.999 C 319.505 84.996,319.158 84.115,319.054 83.375 C 318.999 82.985,318.890 82.667,318.811 82.667 C 318.731 82.667,318.667 82.512,318.667 82.323 C 318.667 82.135,318.599 82.022,318.516 82.074 C 318.433 82.125,318.313 81.792,318.250 81.333 C 318.187 80.875,318.067 80.500,317.984 80.500 C 317.901 80.500,317.833 80.350,317.833 80.167 C 317.833 79.983,317.768 79.833,317.688 79.833 C 317.608 79.833,317.495 79.534,317.436 79.168 C 317.378 78.802,317.181 78.258,316.999 77.959 C 316.817 77.661,316.668 77.248,316.667 77.042 C 316.667 76.835,316.583 76.667,316.481 76.667 C 316.378 76.667,316.332 76.522,316.379 76.344 C 316.427 76.159,316.366 75.984,316.235 75.934 C 316.109 75.886,315.958 75.543,315.898 75.173 C 315.839 74.803,315.735 74.500,315.667 74.500 C 315.598 74.500,315.495 74.200,315.436 73.833 C 315.377 73.467,315.255 73.167,315.165 73.167 C 315.074 73.167,315.000 73.032,315.000 72.867 C 315.000 72.511,314.631 71.670,314.474 71.668 C 314.414 71.667,314.402 71.525,314.447 71.352 C 314.492 71.179,314.448 70.987,314.348 70.926 C 314.248 70.864,314.167 70.631,314.167 70.407 C 314.167 70.183,314.110 69.999,314.042 69.999 C 313.873 69.997,313.500 69.173,313.500 68.800 C 313.500 68.635,313.435 68.500,313.355 68.500 C 313.275 68.500,313.161 68.200,313.103 67.833 C 313.044 67.467,312.922 67.167,312.831 67.167 C 312.741 67.167,312.666 66.960,312.666 66.708 C 312.666 66.456,312.478 65.881,312.249 65.430 C 312.021 64.979,311.833 64.473,311.833 64.305 C 311.833 64.137,311.754 64.000,311.657 64.000 C 311.560 64.000,311.528 63.923,311.586 63.829 C 311.704 63.637,311.321 62.667,311.126 62.667 C 311.057 62.667,311.000 62.442,311.000 62.167 C 311.000 61.892,310.925 61.667,310.833 61.667 C 310.742 61.667,310.667 61.563,310.667 61.436 C 310.667 61.309,310.555 60.990,310.418 60.727 C 310.281 60.465,310.168 60.086,310.168 59.885 C 310.167 59.684,310.098 59.477,310.015 59.426 C 309.931 59.374,309.812 59.032,309.750 58.666 C 309.688 58.300,309.569 58.000,309.485 58.000 C 309.402 58.000,309.333 57.813,309.333 57.583 C 309.333 57.354,309.258 57.167,309.167 57.167 C 309.075 57.167,309.000 57.054,309.000 56.917 C 309.000 56.779,308.925 56.667,308.833 56.667 C 308.742 56.667,308.666 56.460,308.666 56.208 C 308.666 55.956,308.478 55.381,308.249 54.930 C 308.021 54.479,307.833 53.973,307.833 53.805 C 307.833 53.637,307.768 53.500,307.688 53.500 C 307.608 53.500,307.495 53.200,307.436 52.833 C 307.377 52.467,307.255 52.167,307.165 52.167 C 307.074 52.167,307.000 51.942,307.000 51.667 C 307.000 51.392,306.925 51.167,306.833 51.167 C 306.742 51.167,306.666 51.035,306.666 50.875 C 306.665 50.715,306.553 50.369,306.416 50.106 C 306.279 49.843,306.167 49.487,306.167 49.314 C 306.167 49.141,306.083 49.000,305.981 49.000 C 305.872 49.000,305.828 48.827,305.874 48.583 C 305.918 48.354,305.907 48.167,305.851 48.167 C 305.794 48.167,305.648 47.923,305.527 47.625 C 305.405 47.327,305.241 46.933,305.162 46.750 C 305.084 46.567,304.972 46.173,304.913 45.875 C 304.855 45.577,304.738 45.333,304.653 45.333 C 304.569 45.333,304.500 45.161,304.500 44.950 C 304.500 44.246,304.233 44.167,301.873 44.167 C 300.604 44.167,299.687 44.231,299.739 44.316 M331.333 70.330 L 331.333 96.502 346.375 96.459 L 361.417 96.417 361.463 94.375 L 361.510 92.333 348.756 92.333 L 336.001 92.333 335.959 68.292 L 335.917 44.250 333.625 44.204 L 331.333 44.157 331.333 70.330 M-0.000 47.259 C -0.000 47.402,0.191 47.861,0.424 48.280 C 0.658 48.698,0.814 49.075,0.772 49.117 C 0.729 49.160,0.838 49.338,1.014 49.514 C 1.190 49.690,1.333 49.983,1.333 50.167 C 1.333 50.350,1.408 50.500,1.500 50.500 C 1.592 50.500,1.667 50.650,1.667 50.833 C 1.667 51.017,1.736 51.167,1.820 51.167 C 1.904 51.167,2.023 51.392,2.083 51.667 C 2.144 51.942,2.248 52.167,2.315 52.167 C 2.383 52.167,2.541 52.429,2.667 52.750 C 2.793 53.071,2.957 53.333,3.031 53.333 C 3.106 53.333,3.167 53.440,3.167 53.571 C 3.167 53.702,3.284 53.927,3.427 54.070 C 3.571 54.213,3.646 54.398,3.595 54.481 C 3.544 54.564,3.622 54.678,3.768 54.734 C 3.920 54.792,3.994 54.943,3.939 55.085 C 3.887 55.221,3.899 55.333,3.966 55.333 C 4.096 55.333,4.667 56.556,4.667 56.834 C 4.667 56.926,4.742 57.000,4.833 57.000 C 4.925 57.000,5.000 57.112,5.000 57.250 C 5.000 57.387,5.063 57.500,5.140 57.500 C 5.217 57.500,5.370 57.800,5.480 58.167 C 5.590 58.533,5.746 58.833,5.827 58.833 C 5.907 58.833,6.023 59.058,6.083 59.333 C 6.144 59.608,6.256 59.833,6.333 59.833 C 6.410 59.833,6.521 60.048,6.578 60.311 C 6.636 60.573,6.811 60.934,6.967 61.112 C 7.349 61.549,7.833 62.472,7.833 62.764 C 7.833 62.894,7.893 63.000,7.967 63.000 C 8.040 63.000,8.195 63.262,8.311 63.583 C 8.427 63.904,8.586 64.167,8.664 64.167 C 8.743 64.167,8.856 64.392,8.917 64.667 C 8.977 64.942,9.096 65.167,9.180 65.167 C 9.264 65.167,9.333 65.273,9.333 65.402 C 9.333 65.739,10.343 67.667,10.519 67.667 C 10.600 67.667,10.667 67.817,10.667 68.000 C 10.667 68.183,10.742 68.333,10.833 68.333 C 10.925 68.333,11.000 68.483,11.000 68.667 C 11.000 68.850,11.075 69.000,11.167 69.000 C 11.258 69.000,11.333 69.112,11.333 69.250 C 11.333 69.387,11.408 69.500,11.500 69.500 C 11.592 69.500,11.667 69.594,11.668 69.708 C 11.668 69.823,11.780 70.131,11.917 70.392 C 12.053 70.654,12.127 70.929,12.081 71.003 C 12.035 71.077,12.057 71.163,12.129 71.194 C 12.324 71.277,13.000 72.483,13.000 72.748 C 13.000 72.873,13.094 73.075,13.209 73.196 C 13.324 73.318,13.599 73.773,13.819 74.208 C 14.039 74.644,14.287 75.000,14.369 75.000 C 14.452 75.000,14.473 75.075,14.417 75.167 C 14.360 75.258,14.393 75.333,14.490 75.333 C 14.587 75.333,14.667 75.483,14.667 75.667 C 14.667 75.850,14.742 76.000,14.833 76.000 C 14.925 76.000,15.000 76.150,15.000 76.333 C 15.000 76.517,15.069 76.667,15.153 76.667 C 15.238 76.667,15.356 76.892,15.417 77.167 C 15.477 77.442,15.596 77.667,15.680 77.667 C 15.764 77.667,15.833 77.810,15.833 77.986 C 15.833 78.162,15.894 78.331,15.969 78.361 C 16.044 78.392,16.424 79.054,16.815 79.833 C 17.867 81.932,18.393 82.906,18.523 83.002 C 18.588 83.048,18.691 83.289,18.753 83.536 C 18.815 83.784,18.971 84.074,19.100 84.180 C 19.228 84.287,19.333 84.435,19.333 84.510 C 19.333 84.584,19.420 84.856,19.527 85.114 C 19.633 85.372,19.708 85.640,19.694 85.708 C 19.679 85.777,19.728 85.833,19.802 85.833 C 19.877 85.833,20.041 86.096,20.167 86.417 C 20.293 86.737,20.457 87.000,20.531 87.000 C 20.606 87.000,20.667 87.150,20.667 87.333 C 20.667 87.517,20.736 87.667,20.821 87.667 C 21.002 87.667,21.500 88.610,21.500 88.952 C 21.500 89.081,21.574 89.141,21.665 89.085 C 21.756 89.028,21.789 89.088,21.739 89.220 C 21.688 89.350,21.757 89.499,21.891 89.551 C 22.025 89.602,22.186 89.874,22.248 90.155 C 22.309 90.437,22.420 90.667,22.494 90.667 C 22.568 90.667,22.666 90.835,22.714 91.042 C 22.761 91.248,22.895 91.651,23.012 91.938 C 23.232 92.479,22.967 93.602,22.663 93.414 C 22.590 93.370,22.570 93.483,22.618 93.666 C 22.666 93.850,22.628 94.000,22.533 94.000 C 22.438 94.000,22.312 94.220,22.253 94.488 C 22.194 94.757,22.049 95.057,21.931 95.154 C 21.814 95.252,21.578 95.670,21.408 96.083 C 21.238 96.496,21.039 96.833,20.966 96.833 C 20.893 96.833,20.833 96.950,20.833 97.092 C 20.833 97.470,20.225 98.744,19.927 98.992 C 19.786 99.109,19.713 99.274,19.766 99.360 C 19.819 99.445,19.789 99.605,19.700 99.716 C 19.611 99.826,19.488 100.155,19.425 100.447 C 19.363 100.738,19.204 101.066,19.073 101.176 C 18.941 101.285,18.833 101.447,18.833 101.537 C 18.833 101.874,18.291 102.827,18.148 102.739 C 18.067 102.688,18.000 102.805,18.000 102.998 C 18.000 103.330,17.573 104.319,17.352 104.500 C 17.296 104.546,17.250 104.696,17.250 104.833 C 17.250 104.971,17.164 105.067,17.059 105.047 C 16.945 105.026,16.902 105.145,16.953 105.339 C 17.001 105.520,16.956 105.667,16.853 105.667 C 16.750 105.667,16.667 105.779,16.667 105.917 C 16.667 106.054,16.587 106.167,16.490 106.167 C 16.393 106.167,16.354 106.231,16.402 106.310 C 16.507 106.480,16.138 107.330,15.958 107.332 C 15.890 107.333,15.833 107.413,15.833 107.510 C 15.833 107.757,14.449 110.571,14.294 110.639 C 14.224 110.669,14.167 110.838,14.167 111.014 C 14.167 111.190,14.092 111.333,14.000 111.333 C 13.908 111.333,13.833 111.484,13.833 111.669 C 13.833 112.019,13.523 112.673,13.270 112.856 C 13.190 112.915,13.172 113.040,13.230 113.134 C 13.288 113.228,13.279 113.330,13.209 113.361 C 13.024 113.443,11.667 116.137,11.667 116.423 C 11.667 116.557,11.592 116.667,11.500 116.667 C 11.408 116.667,11.333 116.779,11.333 116.917 C 11.333 117.054,11.258 117.167,11.167 117.167 C 11.075 117.167,11.000 117.264,11.000 117.383 C 11.000 117.690,10.608 118.497,10.458 118.499 C 10.390 118.499,10.331 118.594,10.328 118.708 C 10.319 119.036,9.738 120.183,9.634 120.078 C 9.582 120.027,9.490 120.250,9.429 120.576 C 9.368 120.901,9.256 121.167,9.180 121.167 C 9.104 121.167,8.997 121.389,8.943 121.661 C 8.888 121.934,8.691 122.309,8.505 122.495 C 8.319 122.681,8.167 123.028,8.167 123.266 C 8.167 123.504,8.030 123.898,7.864 124.141 C 7.579 124.556,7.350 125.016,6.256 127.372 C 6.012 127.897,5.748 128.367,5.669 128.415 C 5.590 128.464,5.476 128.728,5.416 129.002 C 5.356 129.276,5.238 129.500,5.153 129.500 C 5.069 129.500,5.000 129.612,5.000 129.750 C 5.000 129.887,4.928 130.000,4.841 130.000 C 4.753 130.000,4.634 130.256,4.575 130.569 C 4.516 130.882,4.338 131.277,4.180 131.448 C 4.021 131.618,3.922 131.849,3.960 131.962 C 3.997 132.075,3.947 132.167,3.847 132.167 C 3.748 132.167,3.667 132.271,3.667 132.398 C 3.667 132.756,3.231 133.509,3.100 133.378 C 3.035 133.313,3.029 133.382,3.086 133.530 C 3.143 133.678,3.109 133.849,3.011 133.910 C 2.913 133.970,2.833 134.203,2.833 134.427 C 2.833 134.650,2.772 134.833,2.698 134.833 C 2.623 134.833,2.459 135.096,2.333 135.417 C 2.207 135.737,2.039 136.000,1.959 136.000 C 1.879 136.000,1.860 136.076,1.917 136.168 C 1.974 136.260,1.866 136.553,1.677 136.819 C 1.488 137.084,1.333 137.346,1.333 137.400 C 1.333 137.634,0.743 138.833,0.627 138.833 C 0.557 138.833,0.500 138.940,0.500 139.069 C 0.500 139.199,0.420 139.332,0.323 139.365 C 0.225 139.397,0.103 139.741,0.051 140.129 L -0.044 140.833 16.478 140.833 C 31.053 140.833,33.000 140.804,33.000 140.583 C 33.000 140.446,33.074 140.333,33.163 140.333 C 33.253 140.333,33.374 140.146,33.432 139.917 C 33.489 139.688,33.603 139.500,33.685 139.500 C 33.766 139.500,33.833 139.380,33.833 139.234 C 33.833 139.088,33.973 138.769,34.145 138.526 C 34.316 138.282,34.514 137.896,34.585 137.667 C 34.656 137.438,34.891 136.989,35.107 136.670 C 35.323 136.350,35.500 135.957,35.500 135.795 C 35.500 135.633,35.558 135.500,35.630 135.500 C 35.701 135.500,35.908 135.117,36.088 134.648 C 36.269 134.179,36.533 133.711,36.674 133.606 C 36.942 133.409,37.500 132.335,37.500 132.016 C 37.500 131.916,37.557 131.833,37.627 131.833 C 37.761 131.833,38.333 130.617,38.333 130.332 C 38.333 130.241,38.408 130.167,38.500 130.167 C 38.592 130.167,38.667 130.074,38.667 129.961 C 38.667 129.729,39.518 127.963,39.693 127.832 C 39.756 127.785,39.859 127.539,39.922 127.286 C 39.986 127.033,40.179 126.727,40.351 126.606 C 40.523 126.486,40.712 126.150,40.770 125.860 C 40.828 125.570,40.927 125.333,40.990 125.333 C 41.053 125.333,41.207 125.071,41.333 124.750 C 41.459 124.429,41.623 124.167,41.698 124.167 C 41.772 124.167,41.833 124.047,41.833 123.901 C 41.833 123.607,42.345 122.615,42.542 122.528 C 42.610 122.497,42.667 122.382,42.667 122.272 C 42.667 121.876,43.785 119.918,43.986 119.962 C 44.099 119.988,44.153 119.946,44.106 119.869 C 44.058 119.793,44.465 118.837,45.010 117.744 C 45.554 116.652,46.000 115.662,46.000 115.546 C 46.000 115.429,46.075 115.333,46.167 115.333 C 46.258 115.333,46.336 115.240,46.339 115.125 C 46.346 114.867,46.987 113.520,46.994 113.747 C 47.001 113.946,47.601 112.929,47.852 112.292 C 47.951 112.040,48.100 111.833,48.183 111.833 C 48.266 111.833,48.333 111.734,48.333 111.613 C 48.333 111.492,48.546 110.948,48.806 110.405 C 49.066 109.861,49.385 109.173,49.514 108.875 C 49.643 108.577,49.805 108.333,49.874 108.333 C 49.943 108.333,50.000 108.190,50.000 108.014 C 50.000 107.838,50.056 107.669,50.125 107.639 C 50.268 107.575,50.638 106.910,51.778 104.667 C 52.221 103.796,52.640 103.058,52.708 103.028 C 52.777 102.997,52.833 102.872,52.833 102.750 C 52.833 102.482,53.365 101.440,53.542 101.361 C 53.610 101.331,53.667 101.171,53.667 101.007 C 53.667 100.842,53.779 100.614,53.917 100.500 C 54.054 100.386,54.167 100.189,54.167 100.063 C 54.167 99.937,54.284 99.833,54.427 99.833 C 54.569 99.833,54.645 99.767,54.595 99.686 C 54.545 99.605,54.907 98.746,55.399 97.777 C 55.891 96.809,56.253 95.975,56.202 95.925 C 56.152 95.874,56.241 95.833,56.399 95.833 C 56.557 95.833,56.640 95.758,56.584 95.667 C 56.527 95.575,56.598 95.334,56.740 95.130 C 56.883 94.926,57.000 94.626,57.000 94.463 C 57.000 94.300,57.075 94.167,57.167 94.167 C 57.258 94.167,57.333 93.942,57.333 93.667 C 57.333 93.392,57.264 93.167,57.180 93.167 C 57.096 93.167,56.974 92.923,56.909 92.625 C 56.844 92.327,56.745 92.046,56.687 92.000 C 56.533 91.876,54.833 88.431,54.833 88.242 C 54.833 88.153,54.693 87.992,54.521 87.885 C 54.349 87.778,54.157 87.483,54.093 87.230 C 54.030 86.977,53.828 86.560,53.645 86.303 C 53.462 86.046,53.359 85.760,53.416 85.668 C 53.473 85.576,53.440 85.500,53.343 85.500 C 53.246 85.500,53.167 85.388,53.167 85.250 C 53.167 85.112,53.100 85.000,53.019 85.000 C 52.884 85.000,52.644 84.475,52.601 84.083 C 52.591 83.992,52.533 83.878,52.472 83.832 C 52.410 83.785,52.335 83.637,52.305 83.502 C 52.275 83.368,52.175 83.165,52.083 83.051 C 51.992 82.938,51.839 82.749,51.744 82.631 C 51.486 82.312,50.333 79.868,50.333 79.641 C 50.333 79.533,50.283 79.495,50.222 79.556 C 50.119 79.659,49.179 77.922,49.170 77.614 C 49.168 77.539,48.990 77.239,48.774 76.947 C 48.557 76.655,48.277 76.173,48.150 75.875 C 48.023 75.577,47.858 75.333,47.783 75.333 C 47.708 75.333,47.690 75.264,47.743 75.178 C 47.796 75.093,47.763 74.976,47.669 74.918 C 47.576 74.861,47.500 74.668,47.500 74.490 C 47.500 74.312,47.425 74.167,47.333 74.167 C 47.242 74.167,47.167 74.054,47.167 73.917 C 47.167 73.779,47.092 73.667,47.000 73.667 C 46.908 73.667,46.833 73.517,46.833 73.333 C 46.833 73.150,46.764 73.000,46.680 73.000 C 46.596 73.000,46.477 72.775,46.417 72.500 C 46.356 72.225,46.174 71.907,46.012 71.792 C 45.849 71.677,45.736 71.452,45.760 71.292 C 45.784 71.131,45.744 71.000,45.671 71.000 C 45.545 71.000,45.335 70.602,44.815 69.375 C 44.689 69.077,44.543 68.833,44.490 68.833 C 44.438 68.833,44.293 68.571,44.167 68.250 C 44.041 67.929,43.877 67.667,43.802 67.667 C 43.728 67.667,43.667 67.527,43.667 67.356 C 43.667 67.185,43.517 66.854,43.333 66.621 C 43.150 66.388,43.000 66.078,43.000 65.932 C 43.000 65.786,42.925 65.667,42.833 65.667 C 42.742 65.667,42.667 65.560,42.667 65.431 C 42.667 65.301,42.610 65.169,42.542 65.139 C 42.385 65.069,40.657 61.645,40.663 61.415 C 40.665 61.323,40.510 61.149,40.319 61.030 C 40.122 60.907,40.012 60.709,40.064 60.573 C 40.115 60.441,40.084 60.333,39.995 60.333 C 39.906 60.333,39.833 60.179,39.833 59.990 C 39.833 59.801,39.766 59.688,39.684 59.739 C 39.546 59.825,39.245 59.071,39.306 58.792 C 39.321 58.723,39.272 58.667,39.198 58.667 C 39.123 58.667,38.959 58.404,38.833 58.083 C 38.707 57.762,38.535 57.500,38.449 57.500 C 38.364 57.500,38.336 57.343,38.386 57.150 C 38.436 56.958,38.434 56.844,38.380 56.898 C 38.266 57.012,37.833 56.229,37.833 55.909 C 37.833 55.788,37.678 55.640,37.487 55.579 C 37.297 55.519,37.183 55.428,37.234 55.377 C 37.336 55.275,36.658 53.950,36.458 53.861 C 36.390 53.831,36.333 53.662,36.333 53.486 C 36.333 53.310,36.258 53.167,36.167 53.167 C 36.075 53.167,35.997 53.073,35.994 52.958 C 35.991 52.844,35.844 52.450,35.667 52.083 C 35.490 51.717,35.342 51.323,35.339 51.208 C 35.336 51.094,35.267 51.000,35.186 51.000 C 35.105 51.000,34.997 50.869,34.947 50.708 C 34.854 50.415,34.156 49.156,34.000 49.000 C 33.954 48.954,33.804 48.692,33.667 48.417 C 33.529 48.142,33.380 47.879,33.334 47.833 C 33.288 47.788,33.167 47.600,33.065 47.417 C 32.809 46.954,-0.000 46.797,-0.000 47.259 M302.333 51.167 C 302.333 51.339,302.408 51.527,302.500 51.583 C 302.592 51.640,302.667 51.855,302.667 52.061 C 302.667 52.268,302.777 52.582,302.911 52.760 C 303.046 52.938,303.158 53.252,303.161 53.458 C 303.164 53.665,303.242 53.833,303.333 53.833 C 303.425 53.833,303.500 54.040,303.501 54.292 C 303.502 54.544,303.614 54.965,303.751 55.227 C 303.888 55.490,304.000 55.809,304.000 55.936 C 304.000 56.063,304.075 56.167,304.167 56.167 C 304.258 56.167,304.333 56.354,304.333 56.583 C 304.333 56.813,304.417 57.000,304.519 57.000 C 304.630 57.000,304.675 57.198,304.632 57.491 C 304.593 57.761,304.618 57.947,304.688 57.903 C 304.873 57.789,305.167 58.405,305.167 58.906 C 305.167 59.141,305.233 59.333,305.314 59.333 C 305.396 59.333,305.513 59.669,305.574 60.079 C 305.636 60.490,305.757 60.869,305.843 60.923 C 305.929 60.976,306.000 61.170,306.000 61.353 C 306.000 61.561,306.072 61.642,306.191 61.568 C 306.323 61.487,306.356 61.587,306.297 61.892 C 306.251 62.135,306.277 62.333,306.356 62.333 C 306.435 62.333,306.500 62.479,306.500 62.657 C 306.500 62.835,306.575 63.027,306.667 63.083 C 306.758 63.140,306.833 63.317,306.833 63.477 C 306.833 63.841,307.208 64.664,307.375 64.665 C 307.444 64.666,307.500 64.850,307.500 65.073 C 307.500 65.297,307.582 65.531,307.682 65.593 C 307.783 65.655,307.830 65.887,307.788 66.109 C 307.745 66.330,307.750 66.473,307.797 66.425 C 307.921 66.302,308.333 67.144,308.333 67.519 C 308.333 67.692,308.399 67.833,308.479 67.833 C 308.559 67.833,308.672 68.132,308.730 68.498 C 308.789 68.863,308.986 69.428,309.168 69.753 C 309.351 70.078,309.500 70.491,309.500 70.672 C 309.500 70.852,309.584 71.000,309.686 71.000 C 309.790 71.000,309.834 71.147,309.785 71.333 C 309.737 71.517,309.766 71.667,309.849 71.667 C 309.932 71.667,310.000 71.817,310.000 72.000 C 310.000 72.183,310.075 72.333,310.167 72.333 C 310.258 72.333,310.333 72.506,310.333 72.717 C 310.333 72.927,310.398 73.171,310.477 73.258 C 310.556 73.345,310.699 73.717,310.795 74.083 C 311.039 75.016,311.550 76.445,311.853 77.039 C 311.934 77.199,312.000 77.405,312.000 77.498 C 312.000 77.610,308.645 77.667,302.000 77.667 C 290.843 77.667,291.626 77.755,292.249 76.561 C 292.386 76.298,292.498 75.957,292.499 75.802 C 292.500 75.646,292.575 75.473,292.667 75.417 C 292.758 75.360,292.833 75.131,292.833 74.907 C 292.833 74.683,292.905 74.500,292.992 74.500 C 293.080 74.500,293.201 74.237,293.261 73.915 C 293.322 73.593,293.438 73.289,293.519 73.238 C 293.600 73.188,293.667 73.016,293.667 72.857 C 293.667 72.509,294.038 71.670,294.193 71.668 C 294.253 71.667,294.263 71.517,294.215 71.333 C 294.166 71.147,294.210 71.000,294.314 71.000 C 294.416 71.000,294.500 70.817,294.500 70.593 C 294.500 70.369,294.575 70.140,294.667 70.083 C 294.758 70.027,294.833 69.797,294.833 69.573 C 294.833 69.350,294.902 69.167,294.987 69.167 C 295.071 69.167,295.188 68.923,295.246 68.625 C 295.305 68.327,295.417 67.933,295.496 67.750 C 295.574 67.567,295.736 67.178,295.855 66.887 C 295.974 66.596,296.122 66.389,296.185 66.428 C 296.248 66.467,296.285 66.274,296.265 66.000 C 296.246 65.725,296.291 65.500,296.365 65.500 C 296.439 65.500,296.500 65.359,296.500 65.186 C 296.500 65.013,296.612 64.657,296.749 64.394 C 296.886 64.131,296.998 63.783,296.999 63.620 C 297.000 63.456,297.104 63.283,297.232 63.234 C 297.365 63.183,297.428 63.009,297.379 62.823 C 297.332 62.645,297.378 62.500,297.481 62.500 C 297.583 62.500,297.667 62.289,297.667 62.031 C 297.667 61.774,297.804 61.415,297.972 61.235 C 298.140 61.054,298.324 60.622,298.380 60.274 C 298.498 59.550,298.858 58.667,299.035 58.667 C 299.101 58.667,299.205 58.293,299.265 57.837 C 299.326 57.380,299.436 57.044,299.510 57.090 C 299.585 57.136,299.696 56.834,299.758 56.420 C 299.820 56.006,299.938 55.667,300.019 55.667 C 300.100 55.667,300.167 55.484,300.167 55.260 C 300.167 55.036,300.242 54.807,300.333 54.750 C 300.425 54.693,300.500 54.501,300.500 54.323 C 300.500 54.146,300.575 54.000,300.667 54.000 C 300.758 54.000,300.833 53.854,300.833 53.677 C 300.833 53.499,300.902 53.311,300.985 53.259 C 301.069 53.207,301.189 52.859,301.252 52.486 C 301.358 51.863,301.527 51.434,301.887 50.872 C 302.066 50.594,302.333 50.771,302.333 51.167 M24.620 52.442 C 25.167 52.756,26.000 53.839,26.000 54.235 C 26.000 54.381,26.075 54.500,26.167 54.500 C 26.258 54.500,26.333 54.762,26.333 55.083 C 26.333 55.404,26.258 55.667,26.167 55.667 C 26.075 55.667,26.000 55.858,26.000 56.091 C 26.000 56.324,25.809 56.706,25.576 56.940 C 25.247 57.268,25.194 57.415,25.340 57.591 C 25.444 57.716,25.480 57.897,25.421 57.993 C 25.362 58.088,25.384 58.167,25.471 58.167 C 25.633 58.167,26.500 59.816,26.500 60.126 C 26.500 60.309,27.180 61.687,27.343 61.833 C 27.507 61.981,28.241 63.576,28.247 63.799 C 28.250 63.917,28.363 64.082,28.497 64.165 C 28.631 64.247,28.690 64.366,28.628 64.427 C 28.566 64.489,28.625 64.649,28.759 64.783 C 28.893 64.917,28.960 65.096,28.908 65.180 C 28.856 65.264,28.884 65.333,28.971 65.333 C 29.134 65.333,30.000 66.983,30.000 67.294 C 30.000 67.392,30.056 67.497,30.125 67.528 C 30.243 67.580,30.718 68.521,31.434 70.123 C 31.608 70.512,31.806 70.830,31.875 70.831 C 31.944 70.832,32.000 70.973,32.000 71.144 C 32.000 71.315,32.145 71.640,32.323 71.866 C 32.501 72.092,32.696 72.477,32.758 72.721 C 32.819 72.966,32.944 73.167,33.036 73.167 C 33.127 73.167,33.159 73.279,33.106 73.417 C 33.054 73.554,33.069 73.667,33.141 73.667 C 33.212 73.667,33.374 73.929,33.500 74.250 C 33.626 74.571,33.784 74.833,33.851 74.833 C 33.918 74.833,34.026 75.071,34.089 75.361 C 34.153 75.651,34.340 76.034,34.505 76.211 C 34.670 76.388,34.855 76.732,34.916 76.975 C 34.976 77.218,35.144 77.548,35.289 77.708 C 35.433 77.869,35.484 78.001,35.401 78.003 C 35.318 78.004,35.329 78.060,35.425 78.128 C 35.667 78.296,36.166 79.399,36.170 79.775 C 36.172 79.945,36.321 80.271,36.500 80.500 C 36.679 80.729,36.828 80.972,36.830 81.041 C 36.838 81.305,37.419 82.500,37.539 82.500 C 37.609 82.500,37.667 82.650,37.667 82.833 C 37.667 83.017,37.742 83.167,37.833 83.167 C 37.925 83.167,38.000 83.279,38.000 83.417 C 38.000 83.554,38.084 83.667,38.186 83.667 C 38.290 83.667,38.334 83.814,38.285 84.000 C 38.237 84.184,38.257 84.297,38.330 84.252 C 38.449 84.179,38.682 84.656,38.735 85.084 C 38.747 85.175,38.886 85.436,39.045 85.662 C 39.204 85.889,39.333 86.170,39.333 86.287 C 39.333 86.404,39.400 86.500,39.482 86.500 C 39.564 86.500,39.681 86.702,39.743 86.948 C 39.805 87.195,40.001 87.600,40.178 87.849 C 40.355 88.098,40.500 88.421,40.500 88.567 C 40.500 88.714,40.575 88.833,40.667 88.833 C 40.758 88.833,40.833 88.946,40.833 89.083 C 40.833 89.221,40.908 89.333,41.000 89.333 C 41.092 89.333,41.167 89.412,41.167 89.509 C 41.167 89.606,41.327 90.037,41.523 90.467 C 41.719 90.898,41.850 91.257,41.815 91.266 C 41.779 91.275,41.836 91.387,41.941 91.516 C 42.308 91.967,43.064 93.375,43.520 94.458 C 43.645 94.756,43.813 95.000,43.893 95.000 C 43.973 95.000,44.000 95.150,43.952 95.333 C 43.904 95.517,43.933 95.667,44.016 95.667 C 44.099 95.667,44.167 95.779,44.167 95.917 C 44.167 96.054,44.242 96.167,44.333 96.167 C 44.425 96.167,44.500 96.279,44.500 96.417 C 44.500 96.554,44.575 96.667,44.667 96.667 C 44.758 96.667,44.819 96.723,44.801 96.792 C 44.783 96.860,44.933 97.269,45.134 97.699 C 45.335 98.130,45.500 98.589,45.500 98.720 C 45.500 98.852,45.612 99.053,45.750 99.167 C 45.887 99.281,46.000 99.450,46.000 99.542 C 46.000 99.783,47.053 101.906,47.205 101.972 C 47.276 102.003,47.333 102.135,47.333 102.265 C 47.333 102.550,48.181 104.199,48.417 104.372 C 48.508 104.440,48.515 104.496,48.433 104.497 C 48.350 104.499,48.405 104.636,48.556 104.803 C 48.706 104.969,48.877 105.343,48.935 105.633 C 48.993 105.924,49.106 106.121,49.187 106.071 C 49.267 106.021,49.334 106.079,49.334 106.198 C 49.335 106.318,49.437 106.611,49.560 106.848 C 49.749 107.210,49.749 107.328,49.559 107.588 C 49.435 107.758,49.333 108.033,49.333 108.199 C 49.333 108.364,49.258 108.500,49.167 108.500 C 49.075 108.500,48.991 108.631,48.981 108.792 C 48.962 109.069,48.958 109.069,48.885 108.792 C 48.843 108.631,48.739 108.500,48.654 108.500 C 48.570 108.500,48.515 108.444,48.533 108.375 C 48.551 108.306,48.411 107.912,48.223 107.500 C 48.035 107.087,47.777 106.506,47.650 106.208 C 47.523 105.910,47.376 105.667,47.324 105.667 C 47.272 105.667,47.126 105.404,47.000 105.083 C 46.874 104.763,46.714 104.500,46.643 104.500 C 46.573 104.500,46.466 104.237,46.406 103.917 C 46.345 103.596,46.230 103.333,46.148 103.333 C 46.067 103.333,46.000 103.221,46.000 103.083 C 46.000 102.946,45.921 102.833,45.823 102.833 C 45.726 102.833,45.697 102.752,45.759 102.653 C 45.870 102.473,44.375 99.300,44.129 99.194 C 44.058 99.164,44.000 98.995,44.000 98.819 C 44.000 98.644,43.917 98.500,43.816 98.500 C 43.714 98.500,43.672 98.392,43.723 98.261 C 43.773 98.129,43.763 97.998,43.699 97.969 C 43.635 97.940,43.289 97.317,42.929 96.583 C 42.569 95.850,42.203 95.202,42.116 95.144 C 42.029 95.085,42.009 94.954,42.072 94.852 C 42.135 94.750,42.126 94.666,42.052 94.666 C 41.977 94.666,41.729 94.254,41.500 93.750 C 41.271 93.246,41.019 92.834,40.941 92.834 C 40.862 92.834,40.841 92.721,40.894 92.583 C 40.946 92.446,40.917 92.333,40.828 92.333 C 40.739 92.333,40.667 92.221,40.667 92.083 C 40.667 91.946,40.610 91.833,40.541 91.833 C 40.471 91.833,40.311 91.590,40.185 91.292 C 39.643 90.014,39.425 89.577,39.276 89.475 C 39.189 89.416,39.166 89.243,39.224 89.091 C 39.286 88.930,39.261 88.858,39.165 88.918 C 39.074 88.974,39.000 88.865,39.000 88.677 C 39.000 88.488,38.925 88.333,38.833 88.333 C 38.742 88.333,38.667 88.221,38.667 88.083 C 38.667 87.946,38.598 87.833,38.513 87.833 C 38.429 87.833,38.311 87.609,38.250 87.335 C 38.190 87.061,38.072 86.794,37.987 86.742 C 37.903 86.690,37.833 86.497,37.833 86.314 C 37.833 86.130,37.765 86.023,37.681 86.074 C 37.598 86.126,37.479 85.867,37.417 85.500 C 37.355 85.133,37.248 84.866,37.180 84.908 C 37.112 84.950,36.955 84.726,36.830 84.409 C 36.706 84.092,36.535 83.833,36.451 83.833 C 36.367 83.833,36.338 83.727,36.388 83.597 C 36.438 83.467,36.363 83.317,36.222 83.262 C 36.078 83.207,36.007 83.055,36.061 82.915 C 36.113 82.779,36.102 82.666,36.036 82.664 C 35.971 82.663,35.692 82.176,35.417 81.581 C 35.142 80.987,34.860 80.500,34.792 80.500 C 34.723 80.500,34.666 80.369,34.665 80.208 C 34.664 80.048,34.476 79.590,34.248 79.191 C 34.020 78.792,33.833 78.330,33.833 78.164 C 33.833 77.997,33.777 77.836,33.708 77.806 C 33.511 77.718,33.000 76.727,33.000 76.433 C 33.000 76.286,32.933 76.167,32.852 76.167 C 32.770 76.167,32.656 75.910,32.597 75.595 C 32.538 75.281,32.436 75.000,32.370 74.970 C 32.166 74.879,31.182 72.874,31.288 72.767 C 31.344 72.712,31.310 72.667,31.213 72.667 C 31.048 72.667,30.397 71.490,30.487 71.352 C 30.510 71.316,30.462 71.241,30.381 71.185 C 30.219 71.074,29.669 69.954,29.663 69.725 C 29.661 69.647,29.513 69.396,29.333 69.167 C 29.154 68.938,29.006 68.619,29.004 68.458 C 29.002 68.298,28.917 68.167,28.816 68.167 C 28.714 68.167,28.674 68.054,28.727 67.917 C 28.780 67.779,28.766 67.667,28.696 67.667 C 28.546 67.667,27.574 65.806,27.629 65.625 C 27.650 65.556,27.592 65.500,27.500 65.500 C 27.408 65.500,27.333 65.350,27.333 65.167 C 27.333 64.983,27.258 64.833,27.167 64.833 C 27.075 64.833,27.000 64.683,27.000 64.500 C 27.000 64.317,26.931 64.167,26.847 64.167 C 26.762 64.167,26.644 63.942,26.583 63.667 C 26.523 63.392,26.422 63.167,26.359 63.167 C 26.235 63.167,25.667 61.935,25.667 61.666 C 25.667 61.574,25.610 61.500,25.541 61.500 C 25.471 61.500,25.317 61.256,25.197 60.958 C 25.077 60.660,24.910 60.304,24.827 60.167 C 24.650 59.874,24.292 59.109,24.027 58.458 C 23.861 58.052,23.754 58.000,23.072 58.000 C 21.933 58.000,20.500 56.830,20.500 55.901 C 20.500 55.770,20.408 55.515,20.296 55.335 C 20.135 55.077,20.135 54.965,20.296 54.804 C 20.408 54.692,20.500 54.493,20.500 54.361 C 20.500 54.230,20.631 54.001,20.792 53.853 C 20.952 53.705,21.108 53.471,21.137 53.333 C 21.167 53.196,21.246 53.063,21.313 53.039 C 21.380 53.014,21.693 52.811,22.009 52.588 C 22.704 52.098,23.903 52.031,24.620 52.442 " stroke="none" fill="#fcfcfc" fill-rule="evenodd"></path><path id="path1" d="" stroke="none" fill="#100fcfc" fill-rule="evenodd"></path><path id="path2" d="" stroke="none" fill="#100fcfc" fill-rule="evenodd"></path><path id="path3" d="" stroke="none" fill="#100fcfc" fill-rule="evenodd"></path><path id="path4" d="" stroke="none" fill="#100fcfc" fill-rule="evenodd"></path></g></svg>